<svg width="370" height="258" viewBox="0 0 370 258" fill="none" xmlns="http://www.w3.org/2000/svg">
<path d="M198.5 179.611L246.871 208.295" stroke="#08AAD1" stroke-width="0.774081" stroke-miterlimit="10" stroke-linecap="round"/>
<circle cx="249.877" cy="209.486" r="4.35971" fill="#08AAD1"/>
<path d="M188.827 170.081L276.184 117.463" stroke="#40C2EB" stroke-width="4.64449" stroke-linecap="round" stroke-linejoin="round"/>
<path d="M43.1445 207.387L130.501 154.768" stroke="#40C2EB" stroke-width="4.64449" stroke-linecap="round" stroke-linejoin="round"/>
<path d="M71.0834 202.051L158.44 149.433" stroke="#40C2EB" stroke-width="4.64449" stroke-linecap="round" stroke-linejoin="round"/>
<path d="M204.811 147.357L292.167 94.7386" stroke="#40C2EB" stroke-width="4.64449" stroke-linecap="round" stroke-linejoin="round"/>
<path d="M55.1222 123.446L200.802 212.149C203.323 213.684 203.268 217.361 200.702 218.82L162.088 240.772" stroke="#40C2EB" stroke-width="4.64449" stroke-linecap="round" stroke-linejoin="round"/>
<path d="M297.928 255.663L123.216 150.427" stroke="#40C2EB" stroke-width="4.64449" stroke-linecap="round" stroke-linejoin="round"/>
<path d="M280.058 205.488L133.639 117.753" stroke="#40C2EB" stroke-width="4.64449" stroke-linecap="round" stroke-linejoin="round"/>
<path d="M271.09 182.364L245.795 167.207" stroke="#40C2EB" stroke-width="4.64449" stroke-linecap="round" stroke-linejoin="round"/>
<path opacity="0.2" d="M242.479 179.611L155.348 230.245L67.6586 179.611L154.79 128.977L242.479 179.611Z" fill="#185D82"/>
<path d="M242.479 142.885L155.347 193.518L67.6582 142.885L154.79 92.2511L242.479 142.885Z" fill="#B4FEFF"/>
<path d="M207.455 149.032L206.893 141.359L197.246 138.875L197.977 132.59L173.86 116.366" stroke="#B4FEFF" stroke-width="0.774081" stroke-linecap="round"/>
<path d="M158.215 177.119L150.01 182.108L99.2518 152.528L107.457 147.538L158.215 177.119Z" fill="#62D3EB"/>
<path d="M242.478 142.879L241.631 170.704L154.521 221.338L155.346 193.513L242.478 142.879Z" fill="#62D3EB"/>
<path d="M234.138 155.594L233.829 165.722L202.123 184.152L202.423 174.024L234.138 155.594Z" fill="#185D82"/>
<path d="M193.194 179.611L192.886 189.739L161.179 208.169L161.48 198.041L193.194 179.611Z" fill="#185D82"/>
<path d="M155.347 193.513L154.522 221.315V221.338L129.283 206.778L121.993 202.564L97.8464 188.63L90.5558 184.416L66.8331 170.726L67.3459 153.692L67.6581 142.879L90.7119 156.167L97.9802 160.381L122.149 174.338L128.837 178.217L129.417 178.552L148.079 189.299L155.347 193.513Z" fill="#8CF2FC"/>
<path d="M111.39 134.165L92.9437 144.884L74.3799 134.165L92.8257 123.446L111.39 134.165Z" fill="#FF8356"/>
<path d="M111.39 130.324L92.9437 141.043L74.3799 130.324L92.8257 119.604L111.39 130.324Z" fill="#62D3EB"/>
<path d="M111.389 134.164L111.21 140.054L92.7688 150.773L92.9434 144.883L111.389 134.164Z" fill="#DA5F33"/>
<path d="M92.9439 144.883L92.7693 150.769V150.773L87.4262 147.691L85.8828 146.799L80.771 143.849L79.2276 142.957L74.2054 140.059L74.314 136.453L74.3801 134.164L79.2606 136.977L80.7993 137.869L85.9158 140.824L87.3318 141.645L87.4545 141.716L91.4052 143.991L92.9439 144.883Z" fill="#FC703D"/>
<path d="M140.478 197.232L140.322 202.501V202.506L135.538 199.746L134.156 198.947L129.58 196.306L128.198 195.508L123.702 192.913L123.799 189.684L123.858 187.635L128.227 190.153L129.605 190.952L134.186 193.597L135.454 194.333L135.564 194.396L139.101 196.433L140.478 197.232Z" fill="#62D3EB"/>
<path d="M116.211 183.43L116.055 188.7V188.704L111.271 185.945L109.89 185.146L105.313 182.505L103.931 181.706L99.4348 179.111L99.532 175.883L99.5912 173.833L103.961 176.352L105.338 177.151L109.919 179.796L111.187 180.531L111.297 180.595L114.834 182.632L116.211 183.43Z" fill="#62D3EB"/>
<path d="M91.4179 169.238L91.2615 174.507V174.511L86.4779 171.752L85.096 170.953L80.5194 168.312L79.1375 167.513L74.6412 164.919L74.7384 161.69L74.7976 159.641L79.1671 162.159L80.5447 162.958L85.1256 165.603L86.3933 166.339L86.5032 166.402L90.0402 168.439L91.4179 169.238Z" fill="#21729E"/>
<circle opacity="0.7" r="2.39591" transform="matrix(-0.45663 0.889656 0.889656 0.45663 84.9584 193.518)" fill="white"/>
<circle opacity="0.5" r="2.04762" transform="matrix(-0.45663 0.889656 0.889656 0.45663 80.2729 196.647)" fill="white"/>
<circle opacity="0.3" r="1.72407" transform="matrix(-0.45663 0.889656 0.889656 0.45663 76.0526 199.403)" fill="white"/>
<circle opacity="0.7" r="2.39591" transform="matrix(0.999653 0.0263252 0.0263252 -0.999653 218.287 207.689)" fill="white"/>
<circle opacity="0.5" r="2.04762" transform="matrix(0.999653 0.0263252 0.0263252 -0.999653 223.3 210.832)" fill="white"/>
<circle opacity="0.3" r="1.72407" transform="matrix(0.999653 0.0263252 0.0263252 -0.999653 227.634 213.467)" fill="white"/>
<circle cx="99.4347" cy="209.999" r="4.35971" fill="#08AAD1"/>
<circle cx="56.6254" cy="92.7799" r="5.98145" fill="#08AAD1"/>
<circle cx="303.399" cy="140.567" r="4.70507" fill="#08AAD1"/>
<path d="M116.31 140.748C116.31 140.88 116.31 141.012 116.363 141.144C117.162 146.559 121.117 151.847 128.248 156.007C144.365 165.443 170.657 165.548 186.947 156.205C194.21 152.046 198.264 146.71 199.089 141.243C199.089 141.091 199.135 140.933 199.149 140.768C199.954 134.119 195.992 127.305 187.263 122.194C171.133 112.746 144.867 112.653 128.558 121.996C119.591 127.12 115.511 134.013 116.31 140.748Z" fill="#185D82"/>
<path d="M296.665 49.051C296.268 48.0564 296.752 46.9282 297.747 46.5311C298.741 46.134 299.869 46.6184 300.267 47.613C300.664 48.6076 300.179 49.7358 299.185 50.1329C298.19 50.53 297.062 50.0456 296.665 49.051Z" fill="#0980BF"/>
<path d="M196.378 8.25999C195.981 7.26538 196.465 6.13717 197.46 5.74007C198.454 5.34296 199.582 5.82734 199.98 6.82195C200.377 7.81656 199.892 8.94477 198.898 9.34188C197.903 9.73898 196.775 9.2546 196.378 8.25999Z" fill="#0980BF"/>
<path d="M25.676 38.5952L105.714 111.981L96.9768 76.4847L223.015 107.214" stroke="#0980BF" stroke-width="0.774081" stroke-linecap="round" stroke-linejoin="round"/>
<circle cx="223.525" cy="107.354" r="1.93914" transform="rotate(-178.652 223.525 107.354)" fill="#0980BF"/>
<circle cx="25.6759" cy="38.5951" r="1.93914" transform="rotate(-178.652 25.6759 38.5951)" fill="#0980BF"/>
<path opacity="0.3" d="M322.071 82.4182L322.053 88.6284L322.023 99.7668L310.69 92.9331L310.72 81.7915L310.735 75.5813L322.071 82.4182Z" fill="#08AAD1"/>
<path opacity="0.3" d="M322.071 102.582L322.053 108.792L322.023 114.187L310.69 107.354L310.72 101.955L310.735 95.7448L322.071 102.582Z" fill="#08AAD1"/>
<path opacity="0.3" d="M43.1436 151.521L43.1255 157.731L43.0951 168.87L31.7622 162.036L31.7925 150.894L31.8076 144.684L43.1436 151.521Z" fill="#08AAD1"/>
<path opacity="0.3" d="M43.1437 171.685L43.1255 177.895L43.0951 183.29L31.7622 176.456L31.7925 171.058L31.8077 164.848L43.1437 171.685Z" fill="#08AAD1"/>
<path opacity="0.3" d="M322.071 61.7975L322.053 68.0211L322.023 70.6018L310.69 63.7536L310.72 61.1729L310.735 54.9524L322.071 61.7975Z" fill="#08AAD1"/>
<path opacity="0.3" d="M322.071 73.9147L322.053 77.2604L322.023 79.8492L310.69 72.9828L310.72 73.2881L310.735 67.0451L322.071 73.9147Z" fill="#08AAD1"/>
<path opacity="0.3" d="M322.071 38.5984L322.053 44.8085L322.023 55.947L310.69 49.1133L310.72 37.9717L310.735 31.7615L322.071 38.5984Z" fill="#08AAD1"/>
<path opacity="0.3" d="M322.071 17.9778L322.053 24.2014L322.023 26.7821L310.69 19.9339L310.72 17.3532L310.735 11.1327L322.071 17.9778Z" fill="#08AAD1"/>
<path opacity="0.3" d="M322.071 30.0951L322.053 33.4408L322.023 36.0296L310.69 29.1632L310.72 29.4686L310.735 23.2255L322.071 30.0951Z" fill="#08AAD1"/>
<path d="M302.414 140.567L247.184 99.7662L249.054 112.7L209.781 80.1909" stroke="#08AAD1" stroke-width="0.774081" stroke-linecap="round" stroke-linejoin="round"/>
<path d="M343.853 180.846L370 192.367L345.39 167.086L343.853 180.846Z" fill="#309FDA"/>
<path d="M-0.000102695 100.765L30.1333 122.735L46.6167 113.315L-0.000102695 100.765Z" fill="#8CF2FC"/>
<path d="M50.4036 26.3259L72.2356 40.1526L71.1442 33.2391L50.4036 26.3259Z" stroke="#0980BF" stroke-width="0.774081" stroke-linecap="round" stroke-linejoin="round"/>
<path d="M242.478 55.9468L258.058 66.5539L267.12 61.2666L242.478 55.9468Z" fill="#FC703D"/>
<path d="M158.816 16.3093V127.722" stroke="#40C2EB" stroke-width="1.54816" stroke-linecap="round" stroke-linejoin="round"/>
<path d="M120.273 29.63V141.043" stroke="#40C2EB" stroke-width="1.54816" stroke-linecap="round" stroke-linejoin="round"/>
<path d="M195.659 29.63V141.043" stroke="#40C2EB" stroke-width="1.54816" stroke-linecap="round" stroke-linejoin="round"/>
<path d="M143.839 91.2541C149.108 86.9149 155.537 81.5637 155.124 78.1544C136.733 72.0444 123.008 56.2392 123.287 35.5454C123.567 14.8516 169.632 26.6899 192.469 35.5454C192.057 44.5211 186.637 68.0039 164.577 78.0549C165.066 82.9498 168.964 85.3524 178.59 93.3475C190.018 102.28 193.612 119.249 191.817 137.523C192.306 149.271 175.337 156.777 159.673 156.777C144.009 156.777 124.756 151.229 124.104 137.641C124.917 112.817 131.279 101.302 143.839 91.2541Z" fill="url(#paint0_radial)"/>
<path d="M162.045 108.791C160.846 107.392 158.186 86.4365 158.269 76.8592C157.769 85.104 155.744 105.748 155.494 108.746C154.672 111.212 145.658 110.197 131.274 117.183C126.548 118.621 126.318 133.026 126.068 135.275C125.818 137.523 131.314 151.514 155.799 152.264C180.283 153.013 187.529 140.771 188.029 138.273C188.528 135.774 188.029 127.03 186.03 120.784C184.031 114.538 163.544 110.54 162.045 108.791Z" fill="#2C6E92"/>
<path d="M157.725 130.735C175.236 130.735 183.006 124.076 185.66 120.185C187.376 124.068 188.911 132.467 187.87 139.509C182.829 147.999 172.886 152.696 157.482 152.517C142.078 152.337 126.048 145.611 126.048 136.59C126.213 124.368 128.02 120.616 129.33 118.964C131.807 122.236 140.213 130.735 157.725 130.735Z" fill="#185D82"/>
<path d="M177.429 61.9412C170.94 71.0256 161.593 75.7687 157.73 77.0047C145.448 73.7603 138.032 64.7222 136.873 62.6365C135.714 60.5508 146.143 57.3064 153.79 56.6111C161.438 55.9159 176.038 56.8429 177.429 61.9412Z" fill="#2C6E92"/>
<path d="M117.019 28.8153C117.019 28.9473 117.019 29.0794 117.072 29.2114C117.871 34.6257 121.826 39.9146 128.957 44.0743C145.074 53.5097 171.366 53.6154 187.656 44.2724C194.919 40.1126 198.973 34.7776 199.798 29.3105C199.798 29.1586 199.844 29.0001 199.858 28.8351C200.663 22.1861 196.701 15.372 187.972 10.2614C171.842 0.812806 145.576 0.720374 129.267 10.0633C120.3 15.1871 116.22 22.0804 117.019 28.8153Z" fill="#185D82"/>
<path d="M117.019 25.7002C117.019 25.8322 117.019 25.9643 117.072 26.0963C117.871 31.5106 121.826 36.7995 128.957 40.9592C145.074 50.3946 171.366 50.5002 187.656 41.1573C194.919 36.9975 198.973 31.6625 199.798 26.1954C199.798 26.0435 199.844 25.885 199.858 25.72C200.663 19.0709 196.701 12.2569 187.972 7.14629C171.842 -2.30231 145.576 -2.39474 129.267 6.94821C120.3 12.072 116.22 18.9653 117.019 25.7002Z" fill="#2C6E92"/>
<path d="M158.67 67.7302C171.727 67.7302 175.617 64.2112 177.247 62.1284C177.86 66.731 163.339 76.859 157.509 76.859C151.679 76.859 141.773 70.0598 136.908 62.6369C140.89 65.1373 145.613 67.7302 158.67 67.7302Z" fill="#185D82"/>
<defs>
<radialGradient id="paint0_radial" cx="0" cy="0" r="1" gradientUnits="userSpaceOnUse" gradientTransform="translate(161.292 24.0503) rotate(90.7362) scale(265.825 304.505)">
<stop stop-color="#54BFF5"/>
<stop offset="1" stop-color="white" stop-opacity="0"/>
</radialGradient>
</defs>
</svg>
