<svg width="370" height="427" viewBox="0 0 370 427" fill="none" xmlns="http://www.w3.org/2000/svg">
<ellipse rx="127.55" ry="49.8169" transform="matrix(-1 2.94868e-09 2.94868e-09 1 152.627 301.192)" stroke="#0980BF" stroke-width="1.0961" stroke-linecap="round" stroke-linejoin="round"/>
<path d="M296.487 41.8501L296.487 215.283C296.487 223.884 291.905 231.834 284.463 236.147L155.576 310.835" stroke="url(#paint0_linear)" stroke-width="8.7688" stroke-linecap="round" stroke-linejoin="round"/>
<path d="M163.188 262.297L22.2771 343.953" stroke="url(#paint1_linear)" stroke-width="8.7688" stroke-linecap="round" stroke-linejoin="round"/>
<path d="M40.8362 158.871L40.8362 248.279C40.8362 256.891 45.4291 264.849 52.8859 269.158L150.757 325.71" stroke="url(#paint2_linear)" stroke-width="8.7688" stroke-linecap="round" stroke-linejoin="round"/>
<path d="M95.7978 277.731L242.599 367.367C246.163 369.543 246.082 374.745 242.452 376.809L196.345 403.02" stroke="url(#paint3_linear)" stroke-width="8.7688" stroke-linecap="round" stroke-linejoin="round"/>
<path d="M134.834 372.377L88.7276 346.166C85.0977 344.103 85.0164 338.9 88.58 336.724L158.012 294.329" stroke="url(#paint4_linear)" stroke-width="8.7688" stroke-linecap="round" stroke-linejoin="round"/>
<path d="M299.473 381.165L116.103 269.907" stroke="url(#paint5_linear)" stroke-width="8.7688" stroke-linecap="round" stroke-linejoin="round"/>
<path d="M273.076 340.907L181.391 285.278" stroke="url(#paint6_linear)" stroke-width="8.7688" stroke-linecap="round" stroke-linejoin="round"/>
<path d="M161.946 317.795L70.2607 262.166" stroke="url(#paint7_linear)" stroke-width="8.7688" stroke-linecap="round" stroke-linejoin="round"/>
<ellipse rx="64.1492" ry="25.0546" transform="matrix(-1 0 0 1 153.856 291.897)" fill="url(#paint8_linear)"/>
<ellipse opacity="0.5" rx="103.751" ry="40.5219" transform="matrix(-1 0 0 1 152.977 301.235)" fill="#185D82"/>
<ellipse rx="103.751" ry="40.5219" transform="matrix(-1 0 0 1 152.977 291.897)" fill="#185D82"/>
<ellipse rx="64.1492" ry="25.0546" transform="matrix(-1 0 0 1 153.856 291.897)" fill="url(#paint9_linear)"/>
<path fill-rule="evenodd" clip-rule="evenodd" d="M90.5264 294.963C89.9869 293.655 89.7065 292.313 89.7065 290.946C89.7065 277.109 118.427 265.892 153.856 265.892C189.284 265.892 218.005 277.109 218.005 290.946C218.005 292.313 217.725 293.655 217.185 294.962C212.264 283.035 185.784 273.924 153.856 273.924C121.927 273.924 95.4472 283.035 90.5264 294.963Z" fill="url(#paint10_linear)"/>
<ellipse rx="64.8845" ry="25.3418" transform="matrix(-1 2.94868e-09 2.94868e-09 1 153.855 299.459)" stroke="#185D82" stroke-width="1.0961" stroke-linecap="round" stroke-linejoin="round"/>
<path d="M182.434 267.569C182.434 267.648 182.434 267.721 182.4 267.8C181.932 270.937 179.644 273.996 175.621 276.384C166.437 281.802 151.522 281.774 142.305 276.305C138.199 273.872 135.906 270.763 135.459 267.592L135.426 267.316C134.991 263.458 129.292 255.564 130.766 248.412C139.954 242.988 177.778 243.259 187 248.728C190.683 256.632 182.908 263.666 182.434 267.569Z" fill="#1790CE"/>
<path d="M188.507 246.95C188.507 247.045 188.507 247.133 188.466 247.229C187.889 251.012 185.07 254.699 180.112 257.579C168.798 264.113 150.419 264.079 139.064 257.484C134.004 254.55 131.179 250.801 130.628 246.977L130.588 246.644C130.051 241.992 132.849 237.245 138.982 233.7C150.304 227.159 168.675 227.2 180.038 233.795C186.266 237.408 189.091 242.243 188.507 246.95Z" fill="#54BFF5"/>
<path d="M184.131 246.765C184.131 246.847 184.131 246.923 184.096 247.005C183.6 250.255 181.179 253.423 176.919 255.898C167.197 261.511 151.407 261.482 141.651 255.816C137.303 253.295 134.876 250.074 134.403 246.789L134.368 246.503C133.907 242.506 136.311 238.427 141.581 235.381C151.308 229.761 167.092 229.796 176.855 235.462C182.206 238.567 184.633 242.722 184.131 246.765Z" fill="#1790CE"/>
<path d="M184.131 246.765C184.131 246.847 184.131 246.923 184.096 247.005C183.6 250.255 181.179 253.423 176.919 255.898C167.197 261.511 151.407 261.482 141.651 255.816C137.303 253.295 134.876 250.074 134.403 246.789L134.368 246.503C133.907 242.506 136.311 238.427 141.581 235.381C151.308 229.761 167.092 229.796 176.855 235.462C182.206 238.567 184.633 242.722 184.131 246.765Z" stroke="#0980BF" stroke-width="1.0961" stroke-linecap="round" stroke-linejoin="round"/>
<path d="M186.966 222.111C186.966 222.111 187.221 235.537 186.662 243.647C181.907 255.952 173.193 261.269 154.78 259.868C129.051 257.91 129.051 233.58 129.051 227.707C129.051 221.834 129.294 219.158 126.535 215.402C124.596 212.764 99.6871 195.546 100.526 162.546C101.365 129.546 130.729 107.173 159.534 107.173C188.34 107.173 217.145 130.385 217.984 163.105C218.823 195.825 194.501 213.151 192.255 214.563C189.919 216.031 187.487 218.984 186.966 222.111Z" fill="url(#paint11_radial)"/>
<path opacity="0.32" d="M193.946 142.393C199.519 148.524 201.641 159.213 206.386 156.625C210.268 154.468 205.33 143.628 200.778 138.077C194.268 130.137 186.54 122.518 182.657 125.538C178.775 128.557 187.495 135.298 193.946 142.393Z" fill="white"/>
<path opacity="0.32" d="M168.432 118.709C168.252 121.205 173.22 125.743 176.158 125.172C179.097 124.601 181.699 121.553 176.018 117.164C171.868 113.957 168.611 116.214 168.432 118.709Z" fill="white"/>
<path d="M168.419 182.339H167.224V258.962L168.419 258.548V182.339Z" fill="url(#paint12_radial)"/>
<ellipse rx="3.34182" ry="3.3418" transform="matrix(-1 0 0 1 167.821 181.487)" fill="#54BFF5"/>
<path d="M151.433 182.339H152.628V258.962L151.433 258.548V182.339Z" fill="url(#paint13_radial)"/>
<ellipse cx="152.031" cy="181.487" rx="3.34182" ry="3.3418" fill="#54BFF5"/>
<path opacity="0.2" d="M89.4712 292.83L54.6106 49.7663L265.143 40.4888L217.259 295.284C217.259 295.284 212.36 314.499 157.641 316.833C102.921 319.167 90.5577 297.669 89.4712 292.83Z" fill="url(#paint14_radial)"/>
<path opacity="0.32" d="M108.983 268.024L96.7636 162.631L99.3362 162.274L111.159 267.708C111.159 267.708 111.184 268.695 110.241 268.862C109.297 269.029 108.983 268.024 108.983 268.024Z" fill="url(#paint15_radial)"/>
<path opacity="0.32" d="M204.192 217.559L223.349 113.203L225.913 113.615L206.365 217.894C206.365 217.894 206.101 218.845 205.15 218.728C204.199 218.612 204.192 217.559 204.192 217.559Z" fill="url(#paint16_radial)"/>
<path opacity="0.32" d="M176.277 313.178L181.981 207.232L184.577 207.314L178.475 313.234C178.475 313.234 178.333 314.211 177.375 314.216C176.417 314.222 176.277 313.178 176.277 313.178Z" fill="url(#paint17_radial)"/>
<path opacity="0.32" d="M138.88 300.905L134.922 194.879L137.515 194.724L141.074 300.76C141.074 300.76 141.022 301.746 140.068 301.839C139.115 301.932 138.88 300.905 138.88 300.905Z" fill="url(#paint18_radial)"/>
<path d="M359.835 265.35L328.41 283.612L296.784 265.35L328.209 247.088L359.835 265.35Z" fill="#B4FEFF"/>
<path d="M359.835 260.718L328.41 278.979L296.784 260.718L328.209 242.456L359.835 260.718Z" fill="#185D82"/>
<path d="M359.835 265.348L359.53 298.664L328.113 316.925L328.41 283.61L359.835 265.348Z" fill="#62D3EB"/>
<path d="M328.411 283.61L328.113 316.952L296.487 298.698L296.785 265.348L328.411 283.61Z" fill="#8CF2FC"/>
<path d="M321.225 286.867L321.056 305.805L303.093 295.437L303.262 276.495L321.225 286.867Z" fill="#62D3EB"/>
<path d="M100.504 227.264L80.5152 238.88L60.3987 227.264L80.3874 215.648L100.504 227.264Z" fill="#F06329"/>
<path d="M100.505 227.263L100.31 248.454L80.3267 260.07L80.516 238.879L100.505 227.263Z" fill="#DA4A0F"/>
<path d="M80.5153 238.879L80.326 260.087L60.2095 248.476L60.3987 227.263L80.5153 238.879Z" fill="#C53D05"/>
<path d="M77.1579 240.163L77.1834 245.08L63.5655 237.22L63.54 232.3L77.1579 240.163Z" fill="#DA4A0F"/>
<path d="M77.1579 248.282L77.1834 253.199L63.5655 245.339L63.54 240.419L77.1579 248.282Z" fill="#DA4A0F"/>
<path d="M83.6189 240.163L83.5935 245.08L97.2114 237.22L97.2368 232.3L83.6189 240.163Z" fill="#C53D05"/>
<path d="M83.6189 248.282L83.5935 253.199L97.2114 245.339L97.2368 240.419L83.6189 248.282Z" fill="#C53D05"/>
<path d="M276.106 130.547L169.435 3.27501" stroke="#0980BF" stroke-width="1.0961" stroke-linecap="round" stroke-linejoin="round"/>
<circle cx="276.106" cy="130.547" r="2.97435" transform="rotate(-173.866 276.106 130.547)" fill="#0980BF"/>
<circle cx="169.435" cy="3.27515" r="2.97435" transform="rotate(-173.866 169.435 3.27515)" fill="#0980BF"/>
<path d="M333.065 226.762L229.655 166.529" stroke="#0980BF" stroke-width="1.0961" stroke-linecap="round" stroke-linejoin="round"/>
<circle cx="333.065" cy="226.762" r="2.14345" transform="rotate(166.321 333.065 226.762)" fill="#0980BF"/>
<circle cx="229.655" cy="166.529" r="2.14345" transform="rotate(166.321 229.655 166.529)" fill="#0980BF"/>
<path d="M268.23 419.661L162.771 359.22" stroke="#0980BF" stroke-width="1.0961" stroke-linecap="round" stroke-linejoin="round"/>
<circle cx="268.23" cy="419.661" r="2.97435" transform="rotate(177.797 268.23 419.661)" fill="#0980BF"/>
<circle cx="162.946" cy="359.682" r="2.97435" transform="rotate(177.797 162.946 359.682)" fill="#0980BF"/>
<path d="M61.846 193.045L3.80246 159.384" stroke="#0980BF" stroke-width="1.0961" stroke-linecap="round" stroke-linejoin="round"/>
<circle cx="61.8463" cy="193.045" r="1.64187" transform="rotate(178.089 61.8463 193.045)" fill="#0980BF"/>
<circle cx="3.89804" cy="159.64" r="1.64187" transform="rotate(178.089 3.89804 159.64)" fill="#0980BF"/>
<path d="M367.715 369.639L289.456 324.067" stroke="#0980BF" stroke-width="1.0961" stroke-linecap="round" stroke-linejoin="round"/>
<circle cx="367.715" cy="369.639" r="2.21603" transform="rotate(178.193 367.715 369.639)" fill="#0980BF"/>
<circle cx="289.585" cy="324.412" r="2.21603" transform="rotate(178.193 289.585 324.412)" fill="#0980BF"/>
<path opacity="0.3" d="M341.108 151.192L341.08 160.717L341.034 177.802L323.651 167.32L323.697 150.23L323.72 140.705L341.108 151.192Z" fill="#08AAD1"/>
<path opacity="0.3" d="M341.108 182.119L341.08 191.645L341.034 199.921L323.651 189.439L323.697 181.158L323.72 171.633L341.108 182.119Z" fill="#08AAD1"/>
<path opacity="0.3" d="M341.108 119.563L341.08 129.109L341.034 133.067L323.651 122.563L323.697 118.605L323.72 109.063L341.108 119.563Z" fill="#08AAD1"/>
<path opacity="0.3" d="M341.108 138.148L341.08 143.28L341.034 147.251L323.651 136.719L323.697 137.187L323.72 127.612L341.108 138.148Z" fill="#08AAD1"/>
<path opacity="0.3" d="M341.108 83.9785L341.08 93.504L341.034 110.589L323.651 100.107L323.697 83.0172L323.72 73.4917L341.108 83.9785Z" fill="#08AAD1"/>
<path opacity="0.3" d="M341.108 52.3494L341.08 61.8956L341.034 65.8541L323.651 55.3499L323.697 51.3914L323.72 41.8501L341.108 52.3494Z" fill="#08AAD1"/>
<path opacity="0.3" d="M341.108 70.9358L341.08 76.0677L341.034 80.0385L323.651 69.5065L323.697 69.9748L323.72 60.3989L341.108 70.9358Z" fill="#08AAD1"/>
<path opacity="0.3" d="M17.4574 252.241L17.4295 261.767L17.383 278.852L0 268.37L0.0464674 251.28L0.0697012 241.755L17.4574 252.241Z" fill="#08AAD1"/>
<path opacity="0.3" d="M17.4574 220.612L17.4295 230.158L17.383 234.117L0 223.612L0.0464674 219.654L0.0697012 210.113L17.4574 220.612Z" fill="#08AAD1"/>
<path opacity="0.3" d="M17.4574 179.985L17.4295 189.531L17.383 193.489L0 182.985L0.0464674 179.027L0.0697012 169.485L17.4574 179.985Z" fill="#08AAD1"/>
<path opacity="0.3" d="M17.4574 239.198L17.4295 244.33L17.383 248.301L0 237.769L0.0464674 238.237L0.0697012 228.661L17.4574 239.198Z" fill="#08AAD1"/>
<circle opacity="0.7" r="3.49513" transform="matrix(-0.9998 -0.0199766 -0.0199766 0.9998 240.188 345.41)" fill="white"/>
<circle opacity="0.5" r="2.98705" transform="matrix(-0.9998 -0.0199766 -0.0199766 0.9998 232.77 340.907)" fill="white"/>
<circle opacity="0.3" r="2.51506" transform="matrix(-0.9998 -0.0199766 -0.0199766 0.9998 226.422 337.104)" fill="white"/>
<circle opacity="0.7" r="3.49513" transform="matrix(0.491337 -0.870969 -0.870969 -0.491337 246.939 257.251)" fill="white"/>
<circle opacity="0.5" r="2.98705" transform="matrix(0.491337 -0.870969 -0.870969 -0.491337 254.42 252.852)" fill="white"/>
<circle opacity="0.3" r="2.51506" transform="matrix(0.491337 -0.870969 -0.870969 -0.491337 260.776 249.064)" fill="white"/>
<circle opacity="0.7" r="3.49513" transform="matrix(-0.4826 -0.875841 -0.875841 0.4826 296.487 171.594)" fill="white"/>
<circle opacity="0.5" r="2.98705" transform="matrix(-0.4826 -0.875841 -0.875841 0.4826 296.679 162.919)" fill="white"/>
<circle opacity="0.3" r="2.51506" transform="matrix(-0.4826 -0.875841 -0.875841 0.4826 296.798 155.52)" fill="white"/>
<circle opacity="0.7" r="3.49513" transform="matrix(-0.4826 -0.875841 -0.875841 0.4826 41.0223 245.853)" fill="white"/>
<circle opacity="0.5" r="2.98705" transform="matrix(-0.4826 -0.875841 -0.875841 0.4826 41.2142 237.177)" fill="white"/>
<circle opacity="0.3" r="2.51506" transform="matrix(-0.4826 -0.875841 -0.875841 0.4826 41.3339 229.778)" fill="white"/>
<path d="M312.175 284.264C315.178 286.168 317.609 290.79 317.6 294.582C317.59 298.375 315.145 299.903 312.142 297.999C309.14 296.095 306.709 291.474 306.718 287.707C306.727 283.94 309.173 282.36 312.175 284.264Z" fill="#8CF2FC"/>
<path d="M334.908 285.711L335.077 304.649L353.04 294.281L352.871 275.339L334.908 285.711Z" fill="#8CF2FC"/>
<path d="M343.958 283.108C340.955 285.012 338.524 289.633 338.533 293.426C338.542 297.219 340.988 298.747 343.99 296.843C346.993 294.939 349.424 290.318 349.415 286.551C349.406 282.784 346.96 281.204 343.958 283.108Z" fill="#62D3EB"/>
<defs>
<linearGradient id="paint0_linear" x1="317.628" y1="47.7264" x2="346.86" y2="127.768" gradientUnits="userSpaceOnUse">
<stop stop-color="#51C4E8"/>
<stop offset="1" stop-color="#2D8DAB"/>
</linearGradient>
<linearGradient id="paint1_linear" x1="184.329" y1="80.8445" x2="213.561" y2="160.887" gradientUnits="userSpaceOnUse">
<stop stop-color="#51C4E8"/>
<stop offset="1" stop-color="#2D8DAB"/>
</linearGradient>
<linearGradient id="paint2_linear" x1="19.6949" y1="80.7429" x2="-9.53728" y2="160.785" gradientUnits="userSpaceOnUse">
<stop stop-color="#51C4E8"/>
<stop offset="1" stop-color="#2D8DAB"/>
</linearGradient>
<linearGradient id="paint3_linear" x1="282.578" y1="247.056" x2="290.106" y2="299.756" gradientUnits="userSpaceOnUse">
<stop stop-color="#51C4E8"/>
<stop offset="1" stop-color="#2D8DAB"/>
</linearGradient>
<linearGradient id="paint4_linear" x1="48.6011" y1="216.414" x2="41.0736" y2="269.114" gradientUnits="userSpaceOnUse">
<stop stop-color="#51C4E8"/>
<stop offset="1" stop-color="#2D8DAB"/>
</linearGradient>
<linearGradient id="paint5_linear" x1="331.515" y1="256.008" x2="339.042" y2="308.708" gradientUnits="userSpaceOnUse">
<stop stop-color="#51C4E8"/>
<stop offset="1" stop-color="#2D8DAB"/>
</linearGradient>
<linearGradient id="paint6_linear" x1="305.118" y1="215.75" x2="312.646" y2="268.45" gradientUnits="userSpaceOnUse">
<stop stop-color="#51C4E8"/>
<stop offset="1" stop-color="#2D8DAB"/>
</linearGradient>
<linearGradient id="paint7_linear" x1="193.988" y1="192.638" x2="201.515" y2="245.338" gradientUnits="userSpaceOnUse">
<stop stop-color="#51C4E8"/>
<stop offset="1" stop-color="#2D8DAB"/>
</linearGradient>
<linearGradient id="paint8_linear" x1="72.4864" y1="-69.0006" x2="70.548" y2="68.7402" gradientUnits="userSpaceOnUse">
<stop offset="0.114824" stop-color="#6CDAF4"/>
<stop offset="0.863939" stop-color="#0073A4"/>
</linearGradient>
<linearGradient id="paint9_linear" x1="72.4864" y1="-69.0006" x2="70.548" y2="68.7402" gradientUnits="userSpaceOnUse">
<stop offset="0.114824" stop-color="#6CDAF4"/>
<stop offset="0.863939" stop-color="#0073A4"/>
</linearGradient>
<linearGradient id="paint10_linear" x1="144.193" y1="158.942" x2="148.223" y2="334.59" gradientUnits="userSpaceOnUse">
<stop offset="0.114824" stop-color="#6CDAF4"/>
<stop offset="0.822909" stop-color="#0073A4"/>
</linearGradient>
<radialGradient id="paint11_radial" cx="0" cy="0" r="1" gradientUnits="userSpaceOnUse" gradientTransform="translate(153.455 107.173) rotate(88.9149) scale(306.285 517.101)">
<stop stop-color="#54BFF5"/>
<stop offset="1" stop-color="white" stop-opacity="0"/>
</radialGradient>
<radialGradient id="paint12_radial" cx="0" cy="0" r="1" gradientUnits="userSpaceOnUse" gradientTransform="translate(167.592 183.553) rotate(180) scale(2.5104 74.9534)">
<stop stop-color="#54BFF5"/>
<stop offset="1" stop-color="white" stop-opacity="0"/>
</radialGradient>
<radialGradient id="paint13_radial" cx="0" cy="0" r="1" gradientUnits="userSpaceOnUse" gradientTransform="translate(152.26 183.553) scale(2.5104 74.9534)">
<stop stop-color="#54BFF5"/>
<stop offset="1" stop-color="white" stop-opacity="0"/>
</radialGradient>
<radialGradient id="paint14_radial" cx="0" cy="0" r="1" gradientUnits="userSpaceOnUse" gradientTransform="translate(130.018 364.993) rotate(-89.3312) scale(293.479 293.478)">
<stop offset="0.527277" stop-color="#00AFFF"/>
<stop offset="1" stop-color="white" stop-opacity="0"/>
</radialGradient>
<radialGradient id="paint15_radial" cx="0" cy="0" r="1" gradientUnits="userSpaceOnUse" gradientTransform="translate(88.8638 312.853) rotate(-92.9014) scale(180.935 180.935)">
<stop offset="0.424896" stop-color="#00AFFF"/>
<stop offset="1" stop-color="white" stop-opacity="0"/>
</radialGradient>
<radialGradient id="paint16_radial" cx="0" cy="0" r="1" gradientUnits="userSpaceOnUse" gradientTransform="translate(171.836 254.538) rotate(-75.8862) scale(180.935 180.935)">
<stop offset="0.424896" stop-color="#00AFFF"/>
<stop offset="1" stop-color="white" stop-opacity="0"/>
</radialGradient>
<radialGradient id="paint17_radial" cx="0" cy="0" r="1" gradientUnits="userSpaceOnUse" gradientTransform="translate(148.895 353.978) rotate(-83.2057) scale(180.935 180.935)">
<stop offset="0.424896" stop-color="#00AFFF"/>
<stop offset="1" stop-color="white" stop-opacity="0"/>
</radialGradient>
<radialGradient id="paint18_radial" cx="0" cy="0" r="1" gradientUnits="userSpaceOnUse" gradientTransform="translate(115.324 344.027) rotate(-88.4258) scale(180.935 180.935)">
<stop offset="0.424896" stop-color="#00AFFF"/>
<stop offset="1" stop-color="white" stop-opacity="0"/>
</radialGradient>
</defs>
</svg>
