<svg width="373" height="375" viewBox="0 0 373 375" fill="none" xmlns="http://www.w3.org/2000/svg">
<circle opacity="0.7" r="2.67215" transform="matrix(-1 0 0 1 45.9616 285.539)" fill="white"/>
<circle opacity="0.5" r="2.28371" transform="matrix(-1 0 0 1 40.2219 282.21)" fill="white"/>
<circle opacity="0.3" r="1.92285" transform="matrix(-1 0 0 1 35.3115 279.4)" fill="white"/>
<circle opacity="0.7" r="2.67215" transform="matrix(-1 0 0 1 260.209 322.326)" fill="white"/>
<circle opacity="0.5" r="2.28371" transform="matrix(-1 0 0 1 254.469 318.997)" fill="white"/>
<circle opacity="0.3" r="1.92285" transform="matrix(-1 0 0 1 249.559 316.189)" fill="white"/>
<circle opacity="0.7" r="2.67215" transform="matrix(-0.442146 0.896943 0.896943 0.442146 135.104 329.949)" fill="white"/>
<circle opacity="0.5" r="2.28371" transform="matrix(-0.442146 0.896943 0.896943 0.442146 129.58 333.624)" fill="white"/>
<circle opacity="0.3" r="1.92285" transform="matrix(-0.442146 0.896943 0.896943 0.442146 124.889 336.787)" fill="white"/>
<circle opacity="0.7" r="2.46139" transform="matrix(-0.478609 0.878028 0.878028 0.478609 168.236 289.779)" fill="white"/>
<circle opacity="0.5" r="2.10358" transform="matrix(-0.478609 0.878028 0.878028 0.478609 163.013 292.954)" fill="white"/>
<circle opacity="0.3" r="1.77119" transform="matrix(-0.478609 0.878028 0.878028 0.478609 158.576 295.686)" fill="white"/>
<path d="M87.2678 264.371L119.899 283.042C123.006 284.82 123.038 289.289 119.957 291.112L104.779 300.088C94.3463 306.257 81.4004 306.332 70.8978 300.283L3.00008 261.179" stroke="#40C2EB" stroke-width="5.60139" stroke-linecap="round" stroke-linejoin="round"/>
<path d="M101.608 254.661L147.096 281.152C150.738 283.273 150.821 288.505 147.248 290.741L107.454 315.637C96.8995 322.241 83.5598 322.469 72.7862 316.23L24.7302 288.402" stroke="#40C2EB" stroke-width="5.60139" stroke-linecap="round" stroke-linejoin="round"/>
<path d="M74.5789 368.379L172.225 307.355C177.901 303.98 185.307 300.926 198.693 308.312L259.984 344.512" stroke="url(#paint0_linear)" stroke-width="5.60139" stroke-linecap="round" stroke-linejoin="round"/>
<path d="M206.259 263.618L98.1506 198.97" stroke="url(#paint1_linear)" stroke-width="5.60139" stroke-linecap="round" stroke-linejoin="round"/>
<path d="M295.273 342.668L220.303 299.207" stroke="url(#paint2_linear)" stroke-width="5.60139" stroke-linecap="round" stroke-linejoin="round"/>
<path d="M38.8547 371.403L349.055 175.287" stroke="url(#paint3_linear)" stroke-width="5.60139" stroke-linecap="round" stroke-linejoin="round"/>
<circle opacity="0.7" r="2.54028" transform="matrix(-0.442146 0.896943 0.896943 0.442146 130.18 333.297)" fill="white"/>
<circle opacity="0.5" r="2.171" transform="matrix(-0.442146 0.896943 0.896943 0.442146 124.929 336.792)" fill="white"/>
<circle opacity="0.3" r="1.82795" transform="matrix(-0.442146 0.896943 0.896943 0.442146 120.469 339.797)" fill="white"/>
<circle opacity="0.7" r="2.54028" transform="matrix(-0.999996 0.00277909 0.00277909 0.999996 67.0937 314.212)" fill="white"/>
<circle opacity="0.5" r="2.171" transform="matrix(-0.999996 0.00277909 0.00277909 0.999996 61.629 311.061)" fill="white"/>
<circle opacity="0.3" r="1.82795" transform="matrix(-0.999996 0.00277909 0.00277909 0.999996 56.9533 308.403)" fill="white"/>
<circle opacity="0.7" r="2.54028" transform="matrix(0.999747 0.0225022 0.0225022 -0.999747 222.9 322.635)" fill="white"/>
<circle opacity="0.5" r="2.171" transform="matrix(0.999747 0.0225022 0.0225022 -0.999747 228.283 325.921)" fill="white"/>
<circle opacity="0.3" r="1.82795" transform="matrix(0.999747 0.0225022 0.0225022 -0.999747 232.891 328.698)" fill="white"/>
<path opacity="0.3" d="M221.634 195.915L221.607 205.4L221.56 222.414L204.25 211.976L204.296 194.958L204.319 185.472L221.634 195.915Z" fill="#08AAD1"/>
<path opacity="0.3" d="M221.634 182.926L221.607 188.036L221.56 191.991L204.25 181.503L204.296 181.969L204.319 172.433L221.634 182.926Z" fill="#08AAD1"/>
<path opacity="0.3" d="M214.601 108.883L214.573 118.369L214.527 135.382L197.216 124.944L197.263 107.926L197.286 98.4402L214.601 108.883Z" fill="#08AAD1"/>
<path opacity="0.3" d="M221.634 158.986L221.607 168.492L221.56 172.434L204.25 161.974L204.296 158.032L204.319 148.531L221.634 158.986Z" fill="#08AAD1"/>
<path opacity="0.3" d="M214.601 77.3869L214.573 86.8931L214.527 90.835L197.216 80.3748L197.263 76.4329L197.286 66.9316L214.601 77.3869Z" fill="#08AAD1"/>
<path opacity="0.3" d="M214.601 95.8943L214.573 101.005L214.527 104.959L197.216 94.471L197.263 94.9373L197.286 85.4016L214.601 95.8943Z" fill="#08AAD1"/>
<path opacity="0.3" d="M214.601 41.9515L214.573 51.4371L214.527 68.4502L197.216 58.0122L197.263 40.9942L197.286 31.5086L214.601 41.9515Z" fill="#08AAD1"/>
<path opacity="0.3" d="M214.601 10.4553L214.573 19.9615L214.527 23.9034L197.216 13.4432L197.263 9.5013L197.286 0L214.601 10.4553Z" fill="#08AAD1"/>
<path opacity="0.3" d="M214.601 28.9637L214.573 34.074L214.527 38.0283L197.216 27.5404L197.263 28.0067L197.286 18.4709L214.601 28.9637Z" fill="#08AAD1"/>
<path opacity="0.3" d="M61.3264 82.3768L61.2986 91.8624L61.2523 108.876L43.9421 98.4375L43.9884 81.4196L44.0115 71.934L61.3264 82.3768Z" fill="#08AAD1"/>
<path opacity="0.3" d="M61.3264 116.071L61.2986 125.577L61.2523 129.519L43.9421 119.059L43.9884 115.117L44.0115 105.616L61.3264 116.071Z" fill="#08AAD1"/>
<path opacity="0.3" d="M61.3264 69.388L61.2986 74.4984L61.2523 78.4526L43.9421 67.9647L43.9884 68.4311L44.0115 58.8953L61.3264 69.388Z" fill="#08AAD1"/>
<g opacity="0.35">
<path opacity="0.35" d="M272.423 300.667L200.092 343.261L187.956 350.317L63.5926 278.519L63.2896 278.341L147.756 228.681L272.423 300.667Z" fill="#185D82"/>
</g>
<path d="M272.433 277.014L272.402 285.177L187.935 334.827L187.956 326.663L272.433 277.014Z" fill="#117AB3"/>
<path d="M187.956 326.663L187.935 334.826L63.2578 262.851L63.2892 254.687L187.956 326.663Z" fill="#0980BF"/>
<path d="M272.423 276.951L200.092 319.555L187.956 326.6L63.5926 254.802L63.2896 254.624L147.756 204.975L272.423 276.951Z" fill="#8BD5FD"/>
<path opacity="0.68" d="M124.332 236.949L119.973 239.468L115.594 236.949L119.952 234.419L124.332 236.949Z" fill="#185D82"/>
<path opacity="0.68" d="M130.896 240.743L126.548 243.262L122.168 240.733L126.517 238.214L130.896 240.743Z" fill="#185D82"/>
<path opacity="0.68" d="M127.102 235.351L122.733 232.832L127.081 230.313L131.45 232.843L127.102 235.351Z" fill="#185D82"/>
<path opacity="0.68" d="M137.46 244.538L133.112 247.046L128.733 244.517L133.081 242.008L137.46 244.538Z" fill="#185D82"/>
<path opacity="0.68" d="M133.645 234.107L138.024 236.626L133.676 239.145L129.297 236.616L133.645 234.107Z" fill="#185D82"/>
<path opacity="0.68" d="M133.959 231.305L129.579 228.776L133.927 226.267L138.307 228.797L133.959 231.305Z" fill="#185D82"/>
<path opacity="0.68" d="M139.676 250.841L135.297 248.311L139.645 245.803L144.025 248.322L139.676 250.841Z" fill="#185D82"/>
<path opacity="0.68" d="M140.241 242.939L135.862 240.409L140.21 237.901L144.589 240.43L140.241 242.939Z" fill="#185D82"/>
<path opacity="0.68" d="M140.492 230.061L144.871 232.581L140.523 235.1L136.144 232.57L140.492 230.061Z" fill="#185D82"/>
<path opacity="0.68" d="M141.171 227.28L136.791 224.751L141.139 222.232L145.519 224.772L141.171 227.28Z" fill="#185D82"/>
<path opacity="0.68" d="M147.505 223.539L143.125 221.02L145.874 219.442L150.254 221.971L147.505 223.539Z" fill="#185D82"/>
<path opacity="0.68" d="M141.871 252.106L146.22 249.597L150.589 252.116L146.24 254.635L141.871 252.106Z" fill="#185D82"/>
<path opacity="0.68" d="M146.805 246.733L142.425 244.193L146.784 241.685L151.164 244.214L146.805 246.733Z" fill="#185D82"/>
<path opacity="0.68" d="M147.056 233.855L151.435 236.374L147.087 238.893L142.708 236.363L147.056 233.855Z" fill="#185D82"/>
<path opacity="0.68" d="M147.714 226.038L152.083 228.557L147.735 231.076L143.355 228.547L147.714 226.038Z" fill="#185D82"/>
<path opacity="0.68" d="M149.7 224.814L152.439 223.225L156.818 225.755L154.08 227.344L149.7 224.814Z" fill="#185D82"/>
<path opacity="0.68" d="M152.815 258.429L148.435 255.899L152.794 253.39L157.163 255.909L152.815 258.429Z" fill="#185D82"/>
<path opacity="0.68" d="M149 247.988L153.348 245.479L157.727 248.008L153.369 250.527L149 247.988Z" fill="#185D82"/>
<path opacity="0.68" d="M153.662 242.678L149.282 240.159L153.63 237.64L158.01 240.169L153.662 242.678Z" fill="#185D82"/>
<path opacity="0.68" d="M154.268 229.821L158.648 232.35L154.3 234.869L149.92 232.34L154.268 229.821Z" fill="#185D82"/>
<path opacity="0.68" d="M156.265 228.608L159.003 227.02L163.383 229.549L160.655 231.128L156.265 228.608Z" fill="#185D82"/>
<path opacity="0.68" d="M159.379 262.224L155 259.694L159.348 257.175L163.738 259.705L159.379 262.224Z" fill="#185D82"/>
<path opacity="0.68" d="M159.943 254.31L155.564 251.781L159.912 249.272L164.302 251.802L159.943 254.31Z" fill="#185D82"/>
<path opacity="0.68" d="M160.194 241.423L164.584 243.963L160.226 246.472L155.846 243.942L160.194 241.423Z" fill="#185D82"/>
<path opacity="0.68" d="M160.842 233.615L165.222 236.145L160.874 238.664L156.494 236.124L160.842 233.615Z" fill="#185D82"/>
<path opacity="0.68" d="M162.839 232.392L165.577 230.814L169.947 233.344L167.218 234.922L162.839 232.392Z" fill="#185D82"/>
<path opacity="0.68" d="M165.944 266.008L161.564 263.478L165.923 260.97L170.302 263.499L165.944 266.008Z" fill="#185D82"/>
<path opacity="0.68" d="M166.518 258.105L162.128 255.575L166.476 253.067L170.866 255.586L166.518 258.105Z" fill="#185D82"/>
<path opacity="0.68" d="M166.769 245.218L171.138 247.758L166.79 250.266L162.411 247.737L166.769 245.218Z" fill="#185D82"/>
<path opacity="0.68" d="M167.407 237.409L171.786 239.939L167.438 242.448L163.059 239.918L167.407 237.409Z" fill="#185D82"/>
<path opacity="0.68" d="M169.403 236.187L172.142 234.609L176.521 237.128L173.783 238.716L169.403 236.187Z" fill="#185D82"/>
<path opacity="0.68" d="M172.518 269.801L168.138 267.272L172.487 264.763L176.877 267.293L172.518 269.801Z" fill="#185D82"/>
<path opacity="0.68" d="M173.072 261.899L168.703 259.359L173.061 256.85L177.431 259.38L173.072 261.899Z" fill="#185D82"/>
<path opacity="0.68" d="M173.333 249.012L177.713 251.542L173.365 254.05L168.985 251.521L173.333 249.012Z" fill="#185D82"/>
<path opacity="0.68" d="M173.971 241.204L178.361 243.723L174.002 246.232L169.623 243.702L173.971 241.204Z" fill="#185D82"/>
<path opacity="0.68" d="M148.122 258.44L180.106 276.909L171.284 282L139.3 263.53L148.122 258.44Z" fill="#185D82"/>
<path opacity="0.68" d="M175.967 239.981L178.716 238.403L183.085 240.922L180.347 242.511L175.967 239.981Z" fill="#185D82"/>
<path opacity="0.68" d="M179.082 273.596L174.703 271.066L179.061 268.557L183.441 271.076L179.082 273.596Z" fill="#185D82"/>
<path opacity="0.68" d="M179.647 265.683L175.267 263.154L179.615 260.645L183.995 263.174L179.647 265.683Z" fill="#185D82"/>
<path opacity="0.68" d="M179.928 257.844L175.549 255.325L179.897 252.806L184.277 255.335L179.928 257.844Z" fill="#185D82"/>
<path opacity="0.68" d="M180.545 244.987L184.925 247.516L180.577 250.025L176.187 247.506L180.545 244.987Z" fill="#185D82"/>
<path opacity="0.68" d="M182.542 243.775L185.281 242.187L189.65 244.716L186.911 246.294L182.542 243.775Z" fill="#185D82"/>
<path opacity="0.68" d="M190.005 274.882L185.657 277.391L181.267 274.851L185.615 272.342L190.005 274.882Z" fill="#185D82"/>
<path opacity="0.68" d="M186.211 269.477L181.842 266.948L186.19 264.439L190.559 266.969L186.211 269.477Z" fill="#185D82"/>
<path opacity="0.68" d="M186.493 261.638L182.114 259.109L186.472 256.6L190.841 259.119L186.493 261.638Z" fill="#185D82"/>
<path opacity="0.68" d="M187.109 248.781L191.489 251.31L187.13 253.83L182.761 251.29L187.109 248.781Z" fill="#185D82"/>
<path opacity="0.68" d="M189.106 247.57L191.845 245.981L196.224 248.511L193.486 250.089L189.106 247.57Z" fill="#185D82"/>
<path opacity="0.68" d="M196.569 278.675L192.211 281.174L187.841 278.644L192.19 276.135L196.569 278.675Z" fill="#185D82"/>
<path opacity="0.68" d="M192.785 273.272L188.395 270.742L192.754 268.223L197.134 270.763L192.785 273.272Z" fill="#185D82"/>
<path opacity="0.68" d="M193.068 265.432L188.678 262.903L193.026 260.394L197.406 262.913L193.068 265.432Z" fill="#185D82"/>
<path opacity="0.68" d="M193.674 252.575L198.053 255.105L193.705 257.614L189.325 255.084L193.674 252.575Z" fill="#185D82"/>
<path opacity="0.68" d="M195.67 251.354L198.419 249.775L202.789 252.305L200.05 253.883L195.67 251.354Z" fill="#185D82"/>
<path opacity="0.68" d="M203.133 282.459L198.785 284.968L194.405 282.439L198.764 279.93L203.133 282.459Z" fill="#185D82"/>
<path opacity="0.68" d="M199.339 277.056L194.97 274.536L199.318 272.017L203.698 274.557L199.339 277.056Z" fill="#185D82"/>
<path opacity="0.68" d="M199.632 269.216L195.252 266.697L199.6 264.178L203.98 266.708L199.632 269.216Z" fill="#185D82"/>
<path opacity="0.68" d="M200.248 256.37L204.628 258.899L200.269 261.408L195.9 258.878L200.248 256.37Z" fill="#185D82"/>
<path opacity="0.68" d="M202.234 255.148L204.973 253.559L209.352 256.089L206.614 257.677L202.234 255.148Z" fill="#185D82"/>
<path opacity="0.68" d="M209.708 286.254L205.359 288.762L200.969 286.243L205.328 283.724L209.708 286.254Z" fill="#185D82"/>
<path opacity="0.68" d="M205.924 280.85L201.544 278.32L205.893 275.812L210.272 278.341L205.924 280.85Z" fill="#185D82"/>
<path opacity="0.68" d="M206.196 273.011L201.816 270.481L206.164 267.972L210.544 270.502L206.196 273.011Z" fill="#185D82"/>
<path opacity="0.68" d="M206.823 260.164L211.192 262.683L206.844 265.192L202.464 262.673L206.823 260.164Z" fill="#185D82"/>
<path opacity="0.68" d="M208.809 258.941L211.548 257.342L215.927 259.882L213.189 261.46L208.809 258.941Z" fill="#185D82"/>
<path opacity="0.68" d="M216.272 290.038L211.913 292.546L207.544 290.027L211.892 287.508L216.272 290.038Z" fill="#185D82"/>
<path opacity="0.68" d="M212.488 284.644L208.098 282.115L212.457 279.596L216.836 282.135L212.488 284.644Z" fill="#185D82"/>
<path opacity="0.68" d="M212.76 276.805L208.381 274.275L212.739 271.767L217.119 274.286L212.76 276.805Z" fill="#185D82"/>
<path opacity="0.68" d="M213.387 263.948L217.767 266.477L213.408 268.986L209.029 266.467L213.387 263.948Z" fill="#185D82"/>
<path opacity="0.68" d="M215.374 262.736L218.112 261.147L222.502 263.676L219.764 265.255L215.374 262.736Z" fill="#185D82"/>
<path opacity="0.68" d="M218.457 291.302L222.836 293.832L218.488 296.341L214.109 293.821L218.457 291.302Z" fill="#185D82"/>
<path opacity="0.68" d="M219.052 288.438L214.673 285.908L219.021 283.4L223.4 285.919L219.052 288.438Z" fill="#185D82"/>
<path opacity="0.68" d="M219.335 280.599L214.955 278.07L219.303 275.561L223.683 278.08L219.335 280.599Z" fill="#185D82"/>
<path opacity="0.68" d="M219.951 267.742L224.331 270.261L219.972 272.78L215.593 270.251L219.951 267.742Z" fill="#185D82"/>
<path opacity="0.68" d="M221.937 266.519L224.686 264.931L229.055 267.46L226.317 269.049L221.937 266.519Z" fill="#185D82"/>
<path opacity="0.68" d="M225.585 287.184L229.965 289.714L225.627 292.233L221.237 289.703L225.585 287.184Z" fill="#185D82"/>
<path opacity="0.68" d="M225.899 284.394L221.519 281.854L225.878 279.345L230.247 281.874L225.899 284.394Z" fill="#185D82"/>
<path opacity="0.68" d="M226.547 276.575L222.167 274.045L226.516 271.526L230.895 274.056L226.547 276.575Z" fill="#185D82"/>
<path opacity="0.68" d="M228.512 270.314L231.251 268.725L235.63 271.265L232.892 272.843L228.512 270.314Z" fill="#185D82"/>
<path opacity="0.68" d="M232.442 283.139L236.821 285.669L232.463 288.177L228.094 285.648L232.442 283.139Z" fill="#185D82"/>
<path opacity="0.68" d="M233.111 280.369L228.731 277.84L233.08 275.32L237.459 277.85L233.111 280.369Z" fill="#185D82"/>
<path opacity="0.68" d="M235.076 274.097L237.815 272.519L242.194 275.048L239.456 276.637L235.076 274.097Z" fill="#185D82"/>
<path opacity="0.68" d="M239.644 279.115L244.023 281.644L239.675 284.163L235.296 281.623L239.644 279.115Z" fill="#185D82"/>
<path opacity="0.68" d="M248.769 278.832L246.03 280.421L241.651 277.891L244.389 276.313L248.769 278.832Z" fill="#185D82"/>
<path d="M200.272 319.823L188.137 326.868L63.2896 254.54L75.4353 247.484L200.272 319.823Z" fill="#6AC9FD"/>
<path d="M146.616 108.645L152.794 105.07L277.91 177.475L271.733 181.039L146.616 108.645Z" fill="#46BFF7"/>
<path d="M271.733 181.038L277.91 177.474L278.182 273.867L272.004 277.442L271.733 181.038Z" fill="#117AB3"/>
<path d="M272.004 277.442L271.754 277.285L146.888 205.038L146.867 195.557L146.616 108.635L271.733 181.039L272.004 277.442Z" fill="#309FDA"/>
<path d="M265.482 268.422V268.652L265.252 268.516L153.39 203.794L153.369 195.296L153.139 117.425L217.474 154.647L265.231 182.283L265.482 268.422Z" fill="#99D9FD"/>
<path d="M213.429 235.194V235.308L213.315 235.24L157.967 203.217L157.957 199.012L157.843 174.438L189.675 192.855L213.305 206.529L213.429 235.194Z" fill="#D1E6FD"/>
<path opacity="0.36" d="M265.482 268.422L217.715 240.786L217.704 232.299L217.474 154.647L265.232 182.284L265.482 268.422Z" fill="#08AAD1"/>
<path opacity="0.36" d="M261.479 255.23L242.79 244.778L242.779 236.28L242.549 191.021L261.238 201.473L261.479 255.23Z" fill="url(#paint4_radial)"/>
<path opacity="0.36" d="M213.173 198.024L207.616 194.916L207.613 192.389L207.544 155.055L213.101 158.163L213.173 198.024Z" fill="url(#paint5_radial)"/>
<path opacity="0.36" d="M213.173 197.979L207.616 194.872L207.613 192.345L207.544 172.439L213.101 175.547L213.173 197.979Z" fill="url(#paint6_radial)"/>
<path opacity="0.36" d="M204.858 193.625L199.301 190.517L199.298 187.99L199.229 150.656L204.786 153.764L204.858 193.625Z" fill="url(#paint7_radial)"/>
<path opacity="0.36" d="M204.858 193.579L199.301 190.471L199.298 187.944L199.229 173.919L204.786 177.027L204.858 193.579Z" fill="url(#paint8_radial)"/>
<path d="M221.237 198.988L365.853 282.149L366.225 283.194L369.387 280.936L371.69 278.988L372.936 150.847L373 143.914L228.356 63.6442L222.867 67.4232L222.768 67.4943V67.5014L222.511 67.3664L221.237 198.988Z" fill="#99D9FD"/>
<path d="M221.238 202.865L319.415 257.105L366.625 283.194V282.639L366.661 279.17L367.942 148.027V147.885L222.912 67.7476L222.812 67.8116V67.8187L222.554 67.6907L221.796 145.17L221.273 199.41L221.238 202.865Z" fill="#309FDA"/>
<path d="M229.331 199.774L316.675 247.903L358.676 271.053V270.561L358.707 267.482L359.847 151.116V150.99L230.82 79.8819L230.731 79.9387V79.945L230.502 79.8315L229.827 148.58L229.363 196.709L229.331 199.774Z" fill="#3FD2F5"/>
<path d="M301.166 174.98L335.697 194.079L352.302 203.265V203.07L352.315 201.848L352.765 155.671V155.621L301.755 127.404L301.719 127.426V127.429L301.629 127.384L301.362 154.665L301.178 173.763L301.166 174.98Z" fill="#08AAD1"/>
<path d="M324.453 163.061L340.835 171.763L348.712 175.948V175.859L348.718 175.302L348.652 172.638V172.616L324.453 159.76L324.436 159.77V159.771L324.453 160.034V160.857L324.459 162.507L324.453 163.061Z" fill="#185D82"/>
<path d="M324.453 158.002L340.835 166.704L348.712 170.889V170.8L348.718 170.243L348.652 167.579V167.557L324.453 154.701L324.436 154.711V154.712L324.453 154.975V155.798L324.459 157.448L324.453 158.002Z" fill="#185D82"/>
<path d="M324.453 152.944L340.835 161.646L348.712 165.831V165.742L348.718 165.186L348.652 162.522V162.499L324.453 149.643L324.436 149.653V149.654L324.453 149.917V150.741L324.459 152.39L324.453 152.944Z" fill="#185D82"/>
<path d="M324.453 147.886L340.835 156.587L348.712 160.772V160.683L348.718 160.127L348.652 157.463V157.44L324.453 144.584L324.436 144.594V144.596L324.453 144.859V145.682L324.459 147.331L324.453 147.886Z" fill="#185D82"/>
<path d="M332.33 152.084L348.718 160.793L348.718 160.102L348.652 157.438V157.415L332.33 148.655L332.313 148.666V148.667L332.33 148.93V149.753L332.336 151.403L332.33 152.084Z" fill="#61FDFF"/>
<path d="M324.453 153.072L340.861 161.707L340.861 161.015L340.795 158.351V158.328L324.453 149.643L324.436 149.654L324.448 150.738L324.453 153.072Z" fill="#61FDFF"/>
<path d="M346.287 164.555L348.733 165.854L348.654 162.495L346.279 161.234L346.287 164.555Z" fill="#FF8356"/>
<path d="M301.166 229.615L335.697 248.713L352.302 257.9V257.705L352.315 256.483L352.765 210.306V210.256L301.755 182.038L301.719 182.061V182.063L301.629 182.018L301.362 209.3L301.178 228.398L301.166 229.615Z" fill="#08AAD1"/>
<path d="M307.251 193.206L335.293 209.461L342.642 213.383V213.299L342.647 212.778L342.586 211.293V211.272L307.251 191.124L307.236 191.134V191.135L307.251 191.381V192.153L307.257 192.687L307.251 193.206Z" fill="#61FDFF"/>
<path d="M236.414 194.204L270.945 213.302L287.55 222.489V222.293L287.562 221.072L288.013 174.895V174.845L237.002 146.627L236.967 146.65V146.652L236.877 146.607L236.61 173.888L236.426 192.987L236.414 194.204Z" fill="#08AAD1"/>
<path d="M241.559 165.577L268.139 180.777L280.921 188.089V187.933L280.93 186.961L280.834 177.214V177.175L241.569 154.717L241.542 154.735V154.737L241.472 154.701L241.559 165.577Z" fill="#185D82"/>
<path d="M241.542 179.489L268.139 194.152L280.921 201.242L280.93 200.23L280.833 190.697V190.658L241.542 168.866L241.542 179.489Z" fill="#185D82"/>
<path d="M241.472 192.642L268.139 207.305L280.921 214.394V214.244L280.93 213.301L280.834 203.85V203.811L241.569 182.034L241.542 182.051V182.053L241.472 182.018V191.124L241.472 192.642Z" fill="#185D82"/>
<path d="M280.627 187.215L272.342 176.644L260.056 172.072L241.771 155.787" stroke="#3FD2F5" stroke-width="0.466783" stroke-linecap="round" stroke-linejoin="round"/>
<path d="M280.738 196.32L268.029 189.776L254.846 186.362L241.663 171.472" stroke="#3FD2F5" stroke-width="0.466783" stroke-linecap="round" stroke-linejoin="round"/>
<path d="M280.738 206.867L267.396 203.004L255.243 193.989L241.621 192.12" stroke="#3FD2F5" stroke-width="0.466783" stroke-linecap="round" stroke-linejoin="round"/>
<path d="M257.222 103.883C268.667 110.436 277.927 126.207 277.895 139.194C277.863 152.182 268.531 157.402 257.086 150.881C245.641 144.359 236.342 128.573 236.414 115.577C236.486 102.582 245.737 97.3691 257.222 103.883ZM257.11 142.151C264.313 146.252 270.18 142.94 270.204 134.802C270.228 126.664 264.401 116.705 257.206 112.604C250.011 108.504 244.137 111.816 244.113 119.961C244.089 128.107 249.891 138.035 257.094 142.159L257.11 142.151Z" fill="#61FDFF"/>
<path d="M257.227 100.266C270.355 107.794 280.971 126.034 280.93 141.011C280.89 155.987 270.21 162.025 257.082 154.496C243.953 146.968 233.338 128.736 233.378 113.759C233.419 98.7828 244.091 92.7457 257.227 100.266Z" stroke="#08AAD1" stroke-width="0.466783" stroke-miterlimit="10"/>
<path d="M256.835 103.893C268.493 110.413 277.936 126.229 277.895 139.199C277.854 152.169 268.371 157.405 256.713 150.884C255.286 150.082 253.924 149.175 252.64 148.172L255.206 141.194C255.703 141.533 256.216 141.849 256.729 142.14C264.062 146.232 270.041 142.929 270.058 134.792C270.074 126.655 264.159 116.658 256.827 112.589C253.055 110.484 249.642 110.334 247.214 111.801L240.46 103.349C244.346 100.274 250.236 100.195 256.835 103.893Z" fill="#08AAD1"/>
<path d="M347.208 211.785C348.604 212.788 349.734 215.223 349.729 217.221C349.725 219.219 348.588 220.024 347.192 219.021C345.797 218.018 344.666 215.583 344.671 213.599C344.675 211.614 345.812 210.782 347.208 211.785ZM347.195 217.677C348.066 218.308 348.787 217.801 348.789 216.546C348.76 215.862 348.601 215.195 348.326 214.602C348.051 214.008 347.667 213.504 347.206 213.13C346.334 212.498 345.614 213.005 345.612 214.263C345.64 214.947 345.799 215.613 346.074 216.207C346.349 216.8 346.733 217.304 347.195 217.677Z" fill="#61FDFF"/>
<path d="M307.251 203.323L335.293 219.578L342.642 223.5V223.416L342.647 222.895L342.586 221.41V221.389L307.251 201.241L307.236 201.251V201.252L307.251 201.498V202.269L307.257 202.804L307.251 203.323Z" fill="#61FDFF"/>
<path d="M347.208 221.904C348.604 222.907 349.734 225.342 349.729 227.34C349.725 229.338 348.588 230.143 347.192 229.14C345.797 228.137 344.666 225.702 344.671 223.718C344.675 221.733 345.812 220.901 347.208 221.904ZM347.195 227.795C348.066 228.427 348.787 227.92 348.789 226.665C348.76 225.98 348.601 225.314 348.326 224.721C348.051 224.127 347.667 223.623 347.206 223.249C346.334 222.617 345.614 223.124 345.612 224.382C345.64 225.066 345.799 225.732 346.074 226.325C346.349 226.919 346.733 227.422 347.195 227.795Z" fill="#61FDFF"/>
<path d="M307.251 213.441L335.293 229.695L342.642 233.617V233.534L342.647 233.012L342.586 231.528V231.506L307.251 211.359L307.236 211.368V211.369L307.251 211.616V212.387L307.257 212.921L307.251 213.441Z" fill="#61FDFF"/>
<path d="M347.208 232.021C348.604 233.024 349.734 235.458 349.729 237.457C349.725 239.455 348.588 240.26 347.192 239.257C345.797 238.254 344.666 235.819 344.671 233.834C344.675 231.85 345.812 231.018 347.208 232.021ZM347.195 237.912C348.066 238.544 348.787 238.037 348.789 236.782C348.76 236.097 348.601 235.431 348.326 234.837C348.051 234.244 347.667 233.739 347.206 233.365C346.334 232.734 345.614 233.241 345.612 234.499C345.64 235.183 345.799 235.849 346.074 236.442C346.349 237.035 346.733 237.539 347.195 237.912Z" fill="#61FDFF"/>
<path d="M307.251 223.56L335.293 239.814L342.642 243.736V243.653L342.647 243.131L342.586 241.647V241.625L307.251 221.478L307.236 221.487V221.488L307.251 221.735V222.506L307.257 223.04L307.251 223.56Z" fill="#61FDFF"/>
<path d="M347.208 242.138C348.604 243.142 349.734 245.576 349.729 247.574C349.725 249.573 348.588 250.378 347.192 249.375C345.797 248.371 344.666 245.937 344.671 243.952C344.675 241.968 345.812 241.135 347.208 242.138ZM347.195 248.03C348.066 248.662 348.787 248.155 348.789 246.899C348.76 246.215 348.601 245.549 348.326 244.955C348.051 244.361 347.667 243.857 347.206 243.483C346.334 242.851 345.614 243.358 345.612 244.616C345.64 245.301 345.799 245.967 346.074 246.56C346.349 247.153 346.733 247.657 347.195 248.03Z" fill="#61FDFF"/>
<path d="M322.453 140.589L317.941 138.05L314.206 142.028" stroke="white" stroke-width="0.466783" stroke-linecap="round" stroke-linejoin="round"/>
<path d="M257.18 117.534C261.926 120.543 265.769 127.847 265.754 133.842C265.74 139.836 261.875 142.252 257.129 139.242C252.383 136.233 248.54 128.929 248.555 122.975C248.569 117.021 252.434 114.524 257.18 117.534ZM257.136 135.208C260.098 137.103 262.548 135.582 262.556 131.816C262.457 129.763 261.917 127.765 260.982 125.984C260.047 124.203 258.742 122.69 257.173 121.568C254.211 119.673 251.761 121.194 251.753 124.968C251.851 127.02 252.389 129.018 253.325 130.798C254.26 132.578 255.566 134.089 257.136 135.208Z" fill="#FF8356"/>
<path d="M293.578 123.414L293.587 126.388L293.615 170.113L295.592 171.466L295.601 171.472L295.566 124.773L293.578 123.414Z" fill="#068DAD"/>
<path d="M333.681 173.464L333.69 176.439L333.719 183.695L335.695 185.048L335.704 185.054L335.669 174.823L333.681 173.464Z" fill="#61FDFF"/>
<path d="M322.413 169.647L322.422 172.621L322.451 179.878L324.427 181.23L324.437 181.236L324.401 171.005L322.413 169.647Z" fill="#61FDFF"/>
<path d="M306.696 150.116L306.705 153.09L306.733 160.347L308.71 161.7L308.719 161.706L308.683 151.475L306.696 150.116Z" fill="#61FDFF"/>
<path d="M345.267 187.214L345.277 190.188L345.305 197.445L347.281 198.798L347.291 198.804L347.255 188.573L345.267 187.214Z" fill="#61FDFF"/>
<path d="M288.013 120.798L288.022 123.772L288.051 167.497L290.027 168.85L290.036 168.856L290.001 122.157L288.013 120.798Z" fill="#068DAD"/>
<path d="M334.553 175.948L345.683 188.595V196.183L334.553 182.018L322.412 178.983L306.73 158.748V150.654L323.93 172.913L334.553 175.948Z" fill="#61FDFF"/>
<path d="M319.377 173.882L313.783 175.747L306.696 171.396" stroke="white" stroke-width="0.466783" stroke-linecap="round" stroke-linejoin="round"/>
<path d="M311.419 137.464C313.72 138.928 315.584 142.482 315.576 145.399C315.569 148.316 313.695 149.492 311.394 148.027C309.092 146.563 307.229 143.009 307.236 140.111C307.243 137.214 309.117 135.999 311.419 137.464Z" fill="#185D82"/>
<path d="M74.7874 135.371L176.246 192.944L176.423 193.037L178.512 191.815L180.348 190.749L181.222 99.13L181.266 94.3302L79.7824 38.7518L75.9333 41.3699L75.8573 41.4198V41.426L75.6801 41.3325L74.7874 135.371Z" fill="#21729E"/>
<path d="M175.998 191.95V191.562L176.024 189.154L176.92 97.9028V97.8088L75.9556 42.0486L75.8799 42.0987V42.105L75.7031 42.011L74.8128 133.657L74.7876 136.058L175.998 191.95Z" fill="#185D82"/>
<path d="M169.655 176.573V176.26L169.676 174.324L170.401 100.926V100.85L137.643 82.2433L137.581 82.2836V82.2886L137.438 82.213L136.719 155.929L136.698 157.86L169.655 176.573Z" fill="#309FDA"/>
<path d="M142.74 92.258L154.594 99.1637L160.517 102.528V102.462L160.521 102.051L160.473 100.082V100.066L142.74 89.8184L142.728 89.826V89.8268L142.74 90.0212V90.6294L142.744 91.8484L142.74 92.258Z" fill="#61FDFF"/>
<path d="M142.74 98.1894L154.594 105.095L160.517 108.459V108.394L160.521 107.982L160.473 106.014V105.997L142.74 95.7498L142.728 95.7574V95.7583L142.74 95.9526V96.5608L142.744 97.7799L142.74 98.1894Z" fill="#61FDFF"/>
<path d="M105.226 140.21L120.426 149.065L128.021 153.38V153.295L128.027 152.768L127.965 150.244V150.222L105.226 137.082L105.21 137.092V137.093L105.226 137.342V138.122L105.231 139.685L105.226 140.21Z" fill="#61FDFF"/>
<path d="M104.665 70.8626C117.946 79.3131 128.699 99.8227 128.658 116.655C128.616 133.488 117.801 140.271 104.52 131.821C91.2393 123.37 80.4863 102.86 80.5277 86.142C80.5692 69.4237 91.3844 62.412 104.665 70.8626Z" fill="#309FDA"/>
<path d="M103.844 78.2957C113.889 84.6868 122.021 100.198 121.99 112.929C121.959 125.659 113.779 130.789 103.735 124.398C93.6905 118.007 85.5579 102.496 85.5893 89.8516C85.6206 77.2075 93.8002 71.9046 103.844 78.2957Z" stroke="#185D82" stroke-width="0.466783" stroke-miterlimit="10"/>
<path d="M96.4392 94.3951C97.1365 94.8388 97.7011 95.9157 97.699 96.7996C97.6968 97.6834 97.1289 98.0396 96.4316 97.5959C95.7342 97.1522 95.1696 96.0752 95.1718 95.1974C95.174 94.3196 95.7418 93.9514 96.4392 94.3951Z" fill="#185D82"/>
<path d="M101.223 103.334L101.023 103.755L100.905 103.699L100.833 103.59L101.223 103.334ZM113.842 109.322L114.042 108.9L114.148 108.951L114.217 109.045L113.842 109.322ZM121.285 118.636C121.438 118.844 121.393 119.136 121.186 119.289C120.978 119.442 120.686 119.398 120.533 119.19L121.285 118.636ZM86.8411 82.3528C86.6992 82.1375 86.7588 81.848 86.974 81.7062C87.1893 81.5644 87.4788 81.6239 87.6206 81.8392L86.8411 82.3528ZM101.423 102.912L114.042 108.9L113.642 109.744L101.023 103.755L101.423 102.912ZM114.217 109.045L121.285 118.636L120.533 119.19L113.466 109.599L114.217 109.045ZM100.833 103.59L86.8411 82.3528L87.6206 81.8392L101.613 103.077L100.833 103.59Z" fill="#185D82"/>
<path d="M163.09 100.898C163.799 101.35 164.374 102.446 164.372 103.345C164.369 104.244 163.792 104.607 163.082 104.155C162.372 103.704 161.798 102.608 161.8 101.715C161.802 100.821 162.38 100.447 163.09 100.898Z" fill="#FF8356"/>
<path d="M163.09 106.83C163.799 107.281 164.374 108.377 164.372 109.276C164.369 110.176 163.792 110.538 163.082 110.087C162.372 109.635 161.798 108.539 161.8 107.646C161.802 106.753 162.38 106.378 163.09 106.83Z" fill="#61FDFF"/>
<path d="M142.74 103.803L154.594 110.709L160.517 114.073V114.007L160.521 113.596L160.473 111.628V111.611L142.74 101.363L142.728 101.371V101.372L142.74 101.566V102.174L142.744 103.394L142.74 103.803Z" fill="#61FDFF"/>
<path d="M163.09 112.443C163.799 112.895 164.374 113.991 164.372 114.89C164.369 115.789 163.792 116.152 163.082 115.7C162.372 115.249 161.798 114.153 161.8 113.26C161.802 112.366 162.38 111.992 163.09 112.443Z" fill="#61FDFF"/>
<path d="M142.74 109.418L154.594 116.323L160.517 119.688V119.622L160.521 119.211L160.473 117.242V117.225L142.74 106.978L142.728 106.986V106.987L142.74 107.181V107.789L142.744 109.008L142.74 109.418Z" fill="#61FDFF"/>
<path d="M163.09 118.058C163.799 118.509 164.374 119.605 164.372 120.505C164.369 121.404 163.792 121.766 163.082 121.315C162.372 120.863 161.798 119.768 161.8 118.874C161.802 117.981 162.38 117.606 163.09 118.058Z" fill="#61FDFF"/>
<path d="M142.74 115.031L154.594 121.937L160.517 125.301V125.236L160.521 124.824L160.473 122.856V122.839L142.74 112.592L142.728 112.599V112.6L142.74 112.794V113.403L142.744 114.622L142.74 115.031Z" fill="#61FDFF"/>
<path d="M163.09 123.672C163.799 124.123 164.374 125.219 164.372 126.118C164.369 127.018 163.792 127.38 163.082 126.928C162.372 126.477 161.798 125.381 161.8 124.488C161.802 123.595 162.38 123.22 163.09 123.672Z" fill="#61FDFF"/>
<path d="M142.74 120.646L154.594 127.552L160.517 130.916V130.85L160.521 130.439L160.473 128.47V128.454L142.74 118.206L142.728 118.214V118.215L142.74 118.409V119.017L142.744 120.236L142.74 120.646Z" fill="#61FDFF"/>
<path d="M163.09 129.286C163.799 129.738 164.374 130.833 164.372 131.733C164.369 132.632 163.792 132.995 163.082 132.543C162.372 132.092 161.798 130.996 161.8 130.103C161.802 129.209 162.38 128.835 163.09 129.286Z" fill="#61FDFF"/>
<path d="M99.6136 137.732C100.371 138.151 101.24 137.403 100.941 136.592L92.1036 112.683C91.8611 112.027 91.0101 111.861 90.5385 112.377L79.786 124.152C78.9718 125.044 79.2052 126.462 80.2622 127.046L99.6136 137.732Z" fill="#61FDFF"/>
<path d="M142.74 126.26L154.594 133.165L160.517 136.53V136.464L160.521 136.053L160.473 134.084V134.067L142.74 123.82L142.728 123.828V123.828L142.74 124.023V124.631L142.744 125.85L142.74 126.26Z" fill="#61FDFF"/>
<path d="M163.09 134.901C163.799 135.352 164.374 136.448 164.372 137.347C164.369 138.247 163.792 138.609 163.082 138.158C162.372 137.706 161.798 136.61 161.8 135.717C161.802 134.824 162.38 134.449 163.09 134.901Z" fill="#61FDFF"/>
<path d="M142.74 131.874L154.594 138.78L160.517 142.144V142.078L160.521 141.667L160.473 139.699V139.682L142.74 129.435L142.728 129.442V129.443L142.74 129.637V130.246L142.744 131.465L142.74 131.874Z" fill="#185D82"/>
<path d="M163.09 140.514C163.799 140.966 164.374 142.062 164.372 142.961C164.369 143.86 163.792 144.223 163.082 143.771C162.372 143.32 161.798 142.224 161.8 141.331C161.802 140.438 162.38 140.063 163.09 140.514Z" fill="#185D82"/>
<path d="M142.74 137.488L154.594 144.393L160.517 147.758V147.692L160.521 147.281L160.473 145.312V145.295L142.74 135.048L142.728 135.056V135.057L142.74 135.251V135.859L142.744 137.078L142.74 137.488Z" fill="#185D82"/>
<path d="M163.09 146.129C163.799 146.58 164.374 147.676 164.372 148.576C164.369 149.475 163.792 149.837 163.082 149.386C162.372 148.934 161.798 147.839 161.8 146.945C161.802 146.052 162.38 145.677 163.09 146.129Z" fill="#185D82"/>
<path d="M142.74 143.102L154.594 150.008L160.517 153.372V153.307L160.521 152.895L160.473 150.927V150.91L142.74 140.663L142.728 140.67V140.671L142.74 140.865V141.474L142.744 142.693L142.74 143.102Z" fill="#185D82"/>
<path d="M163.09 151.743C163.799 152.194 164.374 153.29 164.372 154.189C164.369 155.089 163.792 155.451 163.082 155C162.372 154.548 161.798 153.452 161.8 152.559C161.802 151.666 162.38 151.291 163.09 151.743Z" fill="#185D82"/>
<path d="M142.74 148.716L154.594 155.622L160.517 158.986V158.92L160.521 158.509L160.473 156.54V156.524L142.74 146.276L142.728 146.284V146.285L142.74 146.479V147.087L142.744 148.306L142.74 148.716Z" fill="#185D82"/>
<path d="M163.09 157.357C163.799 157.809 164.374 158.905 164.372 159.804C164.369 160.703 163.792 161.066 163.082 160.614C162.372 160.163 161.798 159.067 161.8 158.174C161.802 157.28 162.38 156.906 163.09 157.357Z" fill="#185D82"/>
<path d="M142.74 154.331L154.594 161.236L160.517 164.601V164.535L160.521 164.124L160.473 162.155V162.138L142.74 151.891L142.728 151.899V151.899L142.74 152.094V152.702L142.744 153.921L142.74 154.331Z" fill="#185D82"/>
<path d="M163.09 162.971C163.799 163.422 164.374 164.518 164.372 165.417C164.369 166.317 163.792 166.679 163.082 166.228C162.372 165.776 161.798 164.68 161.8 163.787C161.802 162.894 162.38 162.519 163.09 162.971Z" fill="#185D82"/>
<path d="M96.4356 95.2321L96.0621 75.9403M91.3418 88.6768L85.7891 87.5502M96.0828 82.4534L94.1118 79.5287L93.0309 76.1588M108.559 107.078L112.865 115.52L112.491 127.219M116.972 125.352L115.603 121.12L112.803 118.931M100.864 103.374L99.6351 120.969M112.937 87.4627L107.044 99.8381L103.76 100.427L103.424 103.795M109.157 82.8987L108.559 96.4871" stroke="#185D82" stroke-width="0.466783" stroke-miterlimit="10" stroke-linecap="round"/>
<path d="M171.139 287.013L239.468 325.859L239.587 325.922L240.994 325.098L242.231 324.379L242.819 262.561L242.849 259.322L174.503 221.822L171.91 223.589L171.859 223.622V223.626L171.74 223.563L171.139 287.013Z" fill="#21729E"/>
<path d="M238.971 325.04V324.778L238.988 323.156L239.589 261.66V261.597L171.921 224.019L171.871 224.053V224.057L171.752 223.994L171.155 285.756L171.139 287.374L238.971 325.04Z" fill="#185D82"/>
<path d="M190.559 271.802V271.745L190.562 271.396L190.696 258.172V258.158L175.659 250.077L175.647 250.084V250.085L175.621 250.071L175.488 263.353L175.485 263.701L190.559 271.802Z" fill="#309FDA"/>
<path d="M190.559 253.331V253.274L190.562 252.925L190.696 239.701V239.687L175.659 231.606L175.647 231.613V231.614L175.621 231.6L175.488 244.882L175.485 245.23L190.559 253.331Z" fill="#309FDA"/>
<path d="M223.862 256.877C228.959 260.109 233.085 267.953 233.07 274.39C233.054 280.827 228.903 283.422 223.806 280.19C218.71 276.958 214.583 269.114 214.599 262.721C214.615 256.327 218.765 253.645 223.862 256.877ZM223.814 275.857C226.995 277.893 229.627 276.259 229.635 272.215C229.528 270.01 228.949 267.864 227.945 265.952C226.94 264.039 225.538 262.414 223.854 261.209C220.674 259.174 218.042 260.808 218.034 264.86C218.138 267.065 218.717 269.21 219.721 271.122C220.726 273.033 222.129 274.656 223.814 275.857Z" fill="#FF8356"/>
<path d="M228.724 285.926L228.744 291.889L228.804 313.625L233.049 316.337L233.07 316.349L232.993 288.65L228.724 285.926Z" fill="#068DAD"/>
<path d="M228.724 291.358L228.764 306.911L228.785 313.576L233.033 316.32L233.07 316.348L233.012 294.131L228.724 291.358Z" fill="#61FDFF"/>
<path d="M228.724 306.57L228.744 313.498L233.07 316.349L233.049 309.421L228.724 306.57Z" fill="#3FD2F5"/>
<path d="M222.205 281.58L222.225 287.542L222.286 309.278L226.531 311.99L226.551 312.002L226.474 284.304L222.205 281.58Z" fill="#068DAD"/>
<path d="M222.205 287.013L222.246 302.566L222.266 309.231L226.514 311.974L226.551 312.003L226.494 289.785L222.205 287.013Z" fill="#61FDFF"/>
<path d="M222.205 293.533L222.226 300.46L226.551 303.311L226.53 296.384L222.205 293.533Z" fill="#3FD2F5"/>
<path d="M215.686 277.234L215.706 283.196L215.767 304.932L220.012 307.644L220.032 307.656L219.955 279.958L215.686 277.234Z" fill="#068DAD"/>
<path d="M206.993 249.528L207.004 252.722L207.034 299.679L209.156 301.131L209.167 301.138L209.128 250.988L206.993 249.528Z" fill="#068DAD"/>
<path d="M201.561 246.812L201.571 250.006L201.602 296.962L203.724 298.415L203.734 298.422L203.696 248.271L201.561 246.812Z" fill="#068DAD"/>
<path d="M196.128 244.272L196.138 247.467L196.169 294.423L198.291 295.876L198.301 295.882L198.263 245.732L196.128 244.272Z" fill="#068DAD"/>
<path d="M215.686 282.667L215.727 298.219L215.747 304.885L219.995 307.628L220.032 307.657L219.975 285.439L215.686 282.667Z" fill="#61FDFF"/>
<path d="M215.686 289.186L215.707 301.003L220.032 303.854L220.011 292.038L215.686 289.186Z" fill="#3FD2F5"/>
<path d="M175.505 279.408L175.585 282.299L189.609 290.541L189.529 287.65L175.505 279.408Z" fill="#FF8356"/>
<path d="M20.3498 211.471L106.284 261.061L106.432 261.146L108.2 260.091L109.752 259.176L110.493 182.764L110.531 178.63L24.5799 130.764L21.3185 133.017L21.2593 133.06V133.064L21.107 132.984L20.3498 211.471Z" fill="#99D9FD"/>
<path d="M20.3499 213.356L78.5193 245.625L106.491 261.146V260.816L106.512 258.753L107.271 180.732V180.647L21.3419 132.971L21.2826 133.009V133.013L21.1299 132.937L20.6805 179.032L20.3711 211.301L20.3499 213.356Z" fill="#309FDA"/>
<path fill-rule="evenodd" clip-rule="evenodd" d="M86.7049 239.766L28.6351 207.475L28.6563 205.418L28.9652 173.126L29.2036 148.62L98.887 187.376V187.461L98.3168 246.225L86.7049 239.766Z" fill="#21729E"/>
<path d="M61.3724 198.729V198.62L61.3797 197.939L61.6372 172.151V172.124L32.3012 155.812L32.615 156.38V156.382L32.5642 156.355L32.3085 182.255L32.3012 182.934L61.3724 198.729Z" fill="#309FDA"/>
<path opacity="0.9" d="M95.3193 188.762L95.3106 191.552L95.2962 239.827L89.8867 236.757L89.9012 188.48L89.9084 185.691L95.3193 188.762Z" fill="#08AAD1"/>
<path opacity="0.9" d="M95.3193 199.628L95.3106 202.417L95.2962 239.827L89.8867 236.757L89.9012 199.346L89.9084 196.556L95.3193 199.628Z" fill="#61FDFF"/>
<path opacity="0.9" d="M87.6994 195.395L87.6907 198.185L87.6911 235.481L82.2817 232.411L82.2812 195.114L82.2885 192.324L87.6994 195.395Z" fill="#08AAD1"/>
<path opacity="0.9" d="M87.7138 209.406L87.7052 212.196L87.6907 235.481L82.2812 232.411L82.2957 209.125L82.3029 206.335L87.7138 209.406Z" fill="#61FDFF"/>
<path opacity="0.9" d="M80.0866 198.731L80.0779 201.52L80.0855 231.135L74.6761 228.065L74.6685 198.449L74.6757 195.659L80.0866 198.731Z" fill="#08AAD1"/>
<path opacity="0.9" d="M80.1084 211.578L80.0997 214.368L80.0852 231.134L74.6758 228.064L74.6902 211.297L74.6975 208.507L80.1084 211.578Z" fill="#61FDFF"/>
<path opacity="0.9" d="M72.4882 205.99L72.4795 208.78L72.4808 226.789L67.0713 223.719L67.0701 205.708L67.0773 202.919L72.4882 205.99Z" fill="#08AAD1"/>
<path opacity="0.9" d="M72.4882 177.394L72.4795 180.184L72.4808 185.346L67.0713 182.276L67.0701 177.113L67.0773 174.323L72.4882 177.394Z" fill="#08AAD1"/>
<path opacity="0.3" d="M61.6377 205.925L61.61 215.431L61.5637 219.373L32.2551 202.671L32.3014 198.729L32.3245 189.228L61.6377 205.925Z" fill="#08AAD1"/>
<path d="M40.4502 160.701L43.1665 169.937" stroke="#FAFAFA" stroke-width="0.466783" stroke-linecap="round" stroke-linejoin="round"/>
<path d="M34.4746 157.441L37.7341 164.503" stroke="#FAFAFA" stroke-width="0.466783" stroke-linecap="round" stroke-linejoin="round"/>
<path d="M37.7343 164.503L42.0803 166.676" stroke="#FAFAFA" stroke-width="0.466783" stroke-linecap="round" stroke-linejoin="round"/>
<path d="M45.8832 168.85L61.0945 190.58" stroke="white" stroke-width="0.466783" stroke-linecap="round" stroke-linejoin="round"/>
<path d="M36.6475 173.196L38.8206 186.234" stroke="white" stroke-width="0.466783" stroke-linecap="round" stroke-linejoin="round"/>
<path d="M55.1204 182.431L52.9454 186.577L55.1203 194.926" stroke="white" stroke-width="0.466783" stroke-linecap="round" stroke-linejoin="round"/>
<path d="M58.9211 187.864L54.0318 190.037" stroke="white" stroke-width="0.466783" stroke-linecap="round" stroke-linejoin="round"/>
<path d="M61.6372 172.652L45.8827 168.85L34.0209 174.303L32.3012 182.431" stroke="#068DAD" stroke-width="0.466783" stroke-linecap="round" stroke-linejoin="round"/>
<path d="M61.3264 213.799L44.9341 203.064L38.9139 201.541L32.1684 192.837" stroke="white" stroke-width="0.466783" stroke-linecap="round" stroke-linejoin="round"/>
<path d="M45.3398 168.367C45.3488 168.658 45.4026 168.941 45.4965 169.193C45.5903 169.446 45.7218 169.66 45.8799 169.819C46.1939 170.09 46.4231 169.872 46.4263 169.335C46.4169 169.045 46.3631 168.762 46.2693 168.509C46.1754 168.257 46.0441 168.042 45.8862 167.883C45.5847 167.607 45.3398 167.82 45.3398 168.367Z" fill="#067F9C"/>
<defs>
<linearGradient id="paint0_linear" x1="-213.741" y1="465.907" x2="-120.532" y2="444.859" gradientUnits="userSpaceOnUse">
<stop stop-color="#97E1F8"/>
<stop offset="1" stop-color="#40C2EB"/>
</linearGradient>
<linearGradient id="paint1_linear" x1="233.455" y1="197.148" x2="141.675" y2="176.84" gradientUnits="userSpaceOnUse">
<stop stop-color="#97E1F8"/>
<stop offset="1" stop-color="#40C2EB"/>
</linearGradient>
<linearGradient id="paint2_linear" x1="369.732" y1="304.99" x2="277.953" y2="284.683" gradientUnits="userSpaceOnUse">
<stop stop-color="#97E1F8"/>
<stop offset="1" stop-color="#40C2EB"/>
</linearGradient>
<linearGradient id="paint3_linear" x1="-36.9106" y1="333.838" x2="56.2981" y2="312.79" gradientUnits="userSpaceOnUse">
<stop stop-color="#97E1F8"/>
<stop offset="1" stop-color="#40C2EB"/>
</linearGradient>
<radialGradient id="paint4_radial" cx="0" cy="0" r="1" gradientUnits="userSpaceOnUse" gradientTransform="translate(20118.6 13986.4) scale(1781.46 6042.76)">
<stop stop-color="#8D1EBF"/>
<stop offset="1" stop-color="#F8EFFC"/>
</radialGradient>
<radialGradient id="paint5_radial" cx="0" cy="0" r="1" gradientUnits="userSpaceOnUse" gradientTransform="translate(6117.53 4257.02) scale(529.703 1796.77)">
<stop stop-color="#8D1EBF"/>
<stop offset="1" stop-color="#F8EFFC"/>
</radialGradient>
<radialGradient id="paint6_radial" cx="0" cy="0" r="1" gradientUnits="userSpaceOnUse" gradientTransform="translate(6117.53 4274.4) scale(529.703 1796.77)">
<stop stop-color="#8D1EBF"/>
<stop offset="1" stop-color="#F8EFFC"/>
</radialGradient>
<radialGradient id="paint7_radial" cx="0" cy="0" r="1" gradientUnits="userSpaceOnUse" gradientTransform="translate(6109.21 4252.62) scale(529.703 1796.77)">
<stop stop-color="#8D1EBF"/>
<stop offset="1" stop-color="#F8EFFC"/>
</radialGradient>
<radialGradient id="paint8_radial" cx="0" cy="0" r="1" gradientUnits="userSpaceOnUse" gradientTransform="translate(6109.21 4270) scale(529.703 1796.77)">
<stop stop-color="#8D1EBF"/>
<stop offset="1" stop-color="#F8EFFC"/>
</radialGradient>
</defs>
</svg>
