<svg width="146" height="138" viewBox="0 0 146 138" fill="none" xmlns="http://www.w3.org/2000/svg">
<path d="M0.363671 122.095V121.94L0.353705 120.984L0 84.7284V84.6911L39.8321 62.5369L39.862 62.5568V62.5593L39.9318 62.522L40.283 98.9341L40.293 99.8881L0.363671 122.095Z" fill="#EBEAEA"/>
<path opacity="0.4" d="M17.3627 112.564V112.41L17.3527 111.453L16.9146 75.3075L39.7477 62.6097L39.7776 62.6296V62.6321L39.8473 62.3671L40.283 98.8602L40.2929 99.8142L17.3627 112.564Z" fill="#21729E"/>
<path d="M122.15 86.4203L31.4011 137.916L31.2425 138L29.3739 136.907L27.7317 135.954L26.9503 54.0051L26.9106 49.7119L117.682 0L121.125 2.34175L121.193 2.38636V2.39191L121.352 2.3083L122.15 86.4203Z" fill="#FAFAFA"/>
<path d="M31.6229 137.029V136.681L31.6003 134.528L30.7983 52.9082V52.8241L121.106 2.94966L121.173 2.99453V3.00011L121.332 2.91602L122.128 84.8887L122.15 87.0364L31.6229 137.029Z" fill="white"/>
<path d="M37.2953 123.274V122.994L37.277 121.262L36.6287 55.612V55.5443L65.929 38.9016L65.9838 38.9377V38.9422L66.1116 38.8745L66.7554 104.809L66.7737 106.537L37.2953 123.274Z" fill="#F2F8FA"/>
<path d="M61.3701 47.8579L50.7673 54.0346L45.4697 57.0438V56.985L45.4658 56.6172L45.5088 54.8565V54.8414L61.3701 45.6758L61.3811 45.6826V45.6833L61.3701 45.8571V46.4012L61.3662 47.4915L61.3701 47.8579Z" fill="#61FDFF"/>
<path d="M61.3701 53.1628L50.7673 59.3396L45.4697 62.3488V62.29L45.4658 61.9221L45.5088 60.1614V60.1463L61.3701 50.9807L61.3811 50.9875V50.9883L61.3701 51.1621V51.7061L61.3662 52.7965L61.3701 53.1628Z" fill="#61FDFF"/>
<path d="M94.9249 90.7488L81.3287 98.6694L74.5355 102.528V102.453L74.5305 101.981L74.5857 99.7232V99.7039L94.9249 87.9507L94.939 87.9594V87.9603L94.9249 88.1832V88.8809L94.9199 90.2791L94.9249 90.7488Z" fill="#61FDFF"/>
<path d="M95.4261 28.7217C83.5472 36.2803 73.9291 54.625 73.9662 69.6808C74.0032 84.7366 83.6769 90.8039 95.5559 83.2454C107.435 75.6868 117.053 57.342 117.016 42.3884C116.979 27.4347 107.305 21.1632 95.4261 28.7217Z" fill="#F2F8FA"/>
<path d="M96.1602 35.3688C87.1761 41.0854 79.902 54.9595 79.93 66.3462C79.958 77.7329 87.2743 82.3216 96.2583 76.6051C105.242 70.8885 112.516 57.0144 112.488 45.7049C112.46 34.3955 105.144 29.6523 96.1602 35.3688Z" stroke="#185D82" stroke-width="0.417512" stroke-miterlimit="10"/>
<path d="M102.784 49.7707C102.16 50.1676 101.655 51.1308 101.657 51.9214C101.659 52.7119 102.167 53.0305 102.791 52.6336C103.415 52.2367 103.92 51.2735 103.918 50.4883C103.916 49.7031 103.408 49.3738 102.784 49.7707Z" fill="#185D82"/>
<path d="M98.5051 57.7654L98.6841 58.1426L98.7895 58.0926L98.8537 57.9951L98.5051 57.7654ZM87.2183 63.1217L87.0393 62.7445L86.9444 62.7895L86.8822 62.874L87.2183 63.1217ZM80.5609 71.4529C80.4241 71.6386 80.4637 71.8999 80.6493 72.0367C80.8349 72.1735 81.0963 72.1339 81.2331 71.9483L80.5609 71.4529ZM111.369 38.9992C111.496 38.8067 111.442 38.5477 111.25 38.4209C111.057 38.294 110.798 38.3473 110.672 38.5398L111.369 38.9992ZM98.3261 57.3882L87.0393 62.7445L87.3973 63.4989L98.6841 58.1426L98.3261 57.3882ZM86.8822 62.874L80.5609 71.4529L81.2331 71.9483L87.5544 63.3693L86.8822 62.874ZM98.8537 57.9951L111.369 38.9992L110.672 38.5398L98.1565 57.5357L98.8537 57.9951Z" fill="#185D82"/>
<path d="M43.1688 55.5864C42.5341 55.9903 42.0202 56.9704 42.0222 57.7748C42.0242 58.5792 42.5411 58.9034 43.1757 58.4996C43.8104 58.0957 44.3243 57.1156 44.3223 56.3166C44.3203 55.5177 43.8035 55.1826 43.1688 55.5864Z" fill="#FF8356"/>
<path d="M43.1688 60.8926C42.5341 61.2964 42.0202 62.2766 42.0222 63.081C42.0242 63.8854 42.5411 64.2096 43.1757 63.8057C43.8104 63.4019 44.3243 62.4217 44.3223 61.6228C44.3203 60.8238 43.8035 60.4887 43.1688 60.8926Z" fill="#61FDFF"/>
<path d="M61.3701 58.1845L50.7673 64.3613L45.4697 67.3705V67.3117L45.4658 66.9439L45.5088 65.1831V65.168L61.3701 56.0024L61.3811 56.0092V56.01L61.3701 56.1838V56.7278L61.3662 57.8182L61.3701 58.1845Z" fill="#61FDFF"/>
<path d="M43.1688 65.9133C42.5341 66.3172 42.0202 67.2973 42.0222 68.1017C42.0242 68.9061 42.5411 69.2303 43.1757 68.8265C43.8104 68.4226 44.3243 67.4425 44.3223 66.6435C44.3203 65.8446 43.8035 65.5095 43.1688 65.9133Z" fill="#61FDFF"/>
<path d="M61.3701 63.2065L50.7673 69.3833L45.4697 72.3925V72.3337L45.4658 71.9658L45.5088 70.2051V70.19L61.3701 61.0244L61.3811 61.0312V61.032L61.3701 61.2058V61.7498L61.3662 62.8402L61.3701 63.2065Z" fill="#61FDFF"/>
<path d="M43.1688 70.9351C42.5341 71.3389 42.0202 72.319 42.0222 73.1235C42.0242 73.9279 42.5411 74.252 43.1757 73.8482C43.8104 73.4443 44.3243 72.4642 44.3223 71.6652C44.3203 70.8663 43.8035 70.5312 43.1688 70.9351Z" fill="#61FDFF"/>
<path d="M61.3701 68.2292L50.7673 74.406L45.4697 77.4152V77.3564L45.4658 76.9885L45.5088 75.2278V75.2127L61.3701 66.0471L61.3811 66.0539V66.0547L61.3701 66.2285V66.7725L61.3662 67.8629L61.3701 68.2292Z" fill="#61FDFF"/>
<path d="M43.1688 75.9568C42.5341 76.3606 42.0202 77.3408 42.0222 78.1452C42.0242 78.9496 42.5411 79.2738 43.1757 78.8699C43.8104 78.4661 44.3243 77.4859 44.3223 76.687C44.3203 75.888 43.8035 75.5529 43.1688 75.9568Z" fill="#61FDFF"/>
<path d="M61.3701 73.2499L50.7673 79.4267L45.4697 82.4359V82.3771L45.4658 82.0093L45.5088 80.2485V80.2335L61.3701 71.0679L61.3811 71.0747V71.0754L61.3701 71.2492V71.7933L61.3662 72.8836L61.3701 73.2499Z" fill="#61FDFF"/>
<path d="M43.1688 80.9775C42.5341 81.3814 42.0202 82.3615 42.0222 83.1659C42.0242 83.9703 42.5411 84.2945 43.1757 83.8907C43.8104 83.4868 44.3243 82.5067 44.3223 81.7077C44.3203 80.9088 43.8035 80.5737 43.1688 80.9775Z" fill="#61FDFF"/>
<path d="M99.9448 88.5331C99.2674 88.9071 98.4896 88.2384 98.7579 87.5126L106.662 66.1278C106.879 65.5411 107.64 65.3923 108.062 65.8542L117.679 76.3865C118.408 77.184 118.199 78.4525 117.254 78.9746L99.9448 88.5331Z" fill="#61FDFF"/>
<path d="M105.952 110.062V109.907L105.942 108.951L105.589 72.6958V72.6584L145.421 50.5043L145.451 50.5242V50.5267L145.52 50.4893L145.872 86.9015L145.882 87.8555L105.952 110.062Z" fill="#F2F8FA"/>
<path d="M111.274 101.018V100.91L111.267 100.244L111.02 74.9972V74.9712L138.758 59.5437L138.779 59.5575V59.5593L138.828 59.5333L139.072 84.8897L139.079 85.554L111.274 101.018Z" fill="#ACE1EE"/>
<path d="M61.3701 78.2707L50.7673 84.4475L45.4697 87.4567V87.3979L45.4658 87.03L45.5088 85.2693V85.2542L61.3701 76.0886L61.3811 76.0954V76.0962L61.3701 76.27V76.814L61.3662 77.9044L61.3701 78.2707Z" fill="#61FDFF"/>
<path d="M43.1688 86.0002C42.5341 86.4041 42.0202 87.3842 42.0222 88.1886C42.0242 88.9931 42.5411 89.3172 43.1757 88.9134C43.8104 88.5095 44.3243 87.5294 44.3223 86.7304C44.3203 85.9315 43.8035 85.5964 43.1688 86.0002Z" fill="#61FDFF"/>
<path d="M61.3701 83.2934L50.7673 89.4702L45.4697 92.4794V92.4206L45.4658 92.0528L45.5088 90.292V90.2769L61.3701 81.1113L61.3811 81.1181V81.1189L61.3701 81.2927V81.8367L61.3662 82.9271L61.3701 83.2934Z" fill="#185D82"/>
<path d="M43.1688 91.021C42.5341 91.4248 42.0202 92.405 42.0222 93.2094C42.0242 94.0138 42.5411 94.338 43.1757 93.9341C43.8104 93.5303 44.3243 92.5501 44.3223 91.7512C44.3203 90.9522 43.8035 90.6171 43.1688 91.021Z" fill="#185D82"/>
<path d="M61.3701 88.3142L50.7673 94.4909L45.4697 97.5001V97.4413L45.4658 97.0735L45.5088 95.3128V95.2977L61.3701 86.1321L61.3811 86.1389V86.1396L61.3701 86.3134V86.8575L61.3662 87.9478L61.3701 88.3142Z" fill="#185D82"/>
<path d="M43.1688 96.0427C42.5341 96.4466 42.0202 97.4267 42.0222 98.2311C42.0242 99.0355 42.5411 99.3597 43.1757 98.9559C43.8104 98.552 44.3243 97.5719 44.3223 96.7729C44.3203 95.974 43.8035 95.6389 43.1688 96.0427Z" fill="#185D82"/>
<path d="M61.3701 93.3359L50.7673 99.5127L45.4697 102.522V102.463L45.4658 102.095L45.5088 100.334V100.319L61.3701 91.1538L61.3811 91.1606V91.1613L61.3701 91.3352V91.8792L61.3662 92.9696L61.3701 93.3359Z" fill="#185D82"/>
<path d="M43.1688 101.065C42.5341 101.469 42.0202 102.449 42.0222 103.253C42.0242 104.058 42.5411 104.382 43.1757 103.978C43.8104 103.574 44.3243 102.594 44.3223 101.795C44.3203 100.996 43.8035 100.661 43.1688 101.065Z" fill="#185D82"/>
<path d="M61.3701 98.3576L50.7673 104.534L45.4697 107.544V107.485L45.4658 107.117L45.5088 105.356V105.341L61.3701 96.1755L61.3811 96.1823V96.1831L61.3701 96.3569V96.9009L61.3662 97.9913L61.3701 98.3576Z" fill="#185D82"/>
<path d="M43.1688 106.086C42.5341 106.49 42.0202 107.47 42.0222 108.275C42.0242 109.079 42.5411 109.403 43.1757 109C43.8104 108.596 44.3243 107.616 44.3223 106.817C44.3203 106.018 43.8035 105.683 43.1688 106.086Z" fill="#185D82"/>
<path d="M61.3701 103.378L50.7673 109.555L45.4697 112.564V112.506L45.4658 112.138L45.5088 110.377V110.362L61.3701 101.196L61.3811 101.203V101.204L61.3701 101.378V101.922L61.3662 103.012L61.3701 103.378Z" fill="#185D82"/>
<path d="M43.1688 111.108C42.5341 111.512 42.0202 112.492 42.0222 113.297C42.0242 114.101 42.5411 114.425 43.1757 114.021C43.8104 113.617 44.3243 112.637 44.3223 111.838C44.3203 111.039 43.8035 110.704 43.1688 111.108Z" fill="#185D82"/>
<path d="M102.788 50.5184L103.122 33.2629M107.344 44.6551L112.31 43.6474M103.103 39.0886L104.866 36.4725L105.833 33.4584M91.944 61.114L88.0927 68.6644L88.4267 79.129M84.4189 77.4591L85.6435 73.6741L88.1477 71.7159M98.8268 57.8008L99.9258 73.5385M88.0284 43.5691L93.2994 54.6382L96.2361 55.1653L96.5373 58.1773M91.4091 39.4868L91.9442 51.6409" stroke="#185D82" stroke-width="0.417512" stroke-miterlimit="10" stroke-linecap="round"/>
</svg>
