<svg width="123" height="138" viewBox="0 0 123 138" fill="none" xmlns="http://www.w3.org/2000/svg">
<path d="M0.363671 133.647V133.492L0.353705 132.536L0 96.2807V96.2433L39.8321 74.0892L39.862 74.1091V74.1116L39.9318 74.0742L40.283 110.486L40.293 111.44L0.363671 133.647Z" fill="#EBEAEA"/>
<path opacity="0.4" d="M17.4206 123.917V123.763L17.4106 122.806L17.0569 86.7949L56.889 64.6408L56.9189 64.6607V64.6632L56.9887 64.3982L57.3399 100.756L57.3499 101.711L17.4206 123.917Z" fill="#21729E"/>
<path d="M122.165 86.4203L31.5848 137.916L31.4265 138L29.5613 136.907L27.9222 135.954L27.1422 54.0051L27.1027 49.7119L117.706 0L121.142 2.34175L121.21 2.38636V2.39191L121.368 2.3083L122.165 86.4203Z" fill="#FAFAFA"/>
<path d="M32.2434 136.832V136.485L32.221 134.334L31.4244 52.813V52.729L121.128 2.91446L121.195 2.95928V2.96485L121.352 2.88086L122.143 84.755L122.166 86.9002L32.2434 136.832Z" fill="white"/>
<path d="M96.4217 66.2555V66.1808L96.4168 65.7183L96.2397 48.1868V48.1688L116.174 37.456L116.189 37.4656V37.4668L116.224 37.4487L116.399 55.0561L116.404 55.5174L96.4217 66.2555Z" fill="#309FDA"/>
<path d="M96.4217 41.7684V41.6938L96.4168 41.2312L96.2397 23.6998V23.6817L116.174 12.9689L116.189 12.9785V12.9797L116.224 12.9617L116.399 30.569L116.404 31.0303L96.4217 41.7684Z" fill="#309FDA"/>
<path d="M52.272 46.4713C45.5156 50.7556 40.045 61.1536 40.0661 69.6873C40.0872 78.2211 45.5894 81.6601 52.3458 77.3759C59.1023 73.0916 64.5728 62.6936 64.5517 54.2177C64.5307 45.7419 59.0285 42.1871 52.272 46.4713ZM52.3353 71.6326C48.1191 74.3305 44.6302 72.1653 44.6196 66.8042C44.7608 63.8812 45.5284 61.0362 46.8601 58.5009C48.1917 55.9656 50.0496 53.8116 52.2826 52.2145C56.4988 49.5166 59.9877 51.6819 59.9982 57.0545C59.8596 59.9766 59.093 62.821 57.761 65.3549C56.4291 67.8888 54.5698 70.0401 52.3353 71.6326Z" fill="#FF8356"/>
<path d="M45.8274 84.9792L45.8006 92.8832L45.7201 121.698L40.0929 125.293L40.066 125.309L40.168 88.5904L45.8274 84.9792Z" fill="#068DAD"/>
<path d="M45.8274 92.1812L45.7733 112.798L45.7462 121.634L40.1148 125.271L40.066 125.309L40.1418 95.856L45.8274 92.1812Z" fill="#61FDFF"/>
<path d="M45.8274 112.346L45.7998 121.529L40.066 125.309L40.0936 116.126L45.8274 112.346Z" fill="#3FD2F5"/>
<path d="M54.4694 79.2185L54.4425 87.1225L54.3621 115.937L48.7348 119.532L48.708 119.548L48.8099 82.8296L54.4694 79.2185Z" fill="#068DAD"/>
<path d="M54.4694 86.4194L54.4152 107.037L54.3881 115.872L48.7567 119.509L48.708 119.547L48.7838 90.0943L54.4694 86.4194Z" fill="#61FDFF"/>
<path d="M54.4694 95.062L54.4418 104.245L48.708 108.025L48.7356 98.8417L54.4694 95.062Z" fill="#3FD2F5"/>
<path d="M63.1113 73.4568L63.0845 81.3608L63.004 110.175L57.3768 113.77L57.35 113.786L57.4519 77.0679L63.1113 73.4568Z" fill="#068DAD"/>
<path d="M74.6337 36.7275L74.6203 40.9618L74.5801 103.209L71.7665 105.135L71.7531 105.144L71.804 38.6621L74.6337 36.7275Z" fill="#068DAD"/>
<path d="M81.836 33.1274L81.8226 37.3617L81.7824 99.609L78.9687 101.535L78.9553 101.544L79.0063 35.062L81.836 33.1274Z" fill="#068DAD"/>
<path d="M89.0375 29.762L89.0241 33.9962L88.9839 96.2435L86.1703 98.1695L86.1569 98.178L86.2078 31.6965L89.0375 29.762Z" fill="#068DAD"/>
<path d="M63.1113 80.6589L63.0572 101.276L63.0301 110.112L57.3987 113.749L57.35 113.787L57.4258 84.3338L63.1113 80.6589Z" fill="#61FDFF"/>
<path d="M63.1113 89.3003L63.0837 104.965L57.35 108.745L57.3775 93.08L63.1113 89.3003Z" fill="#3FD2F5"/>
<path d="M116.377 76.3386L116.27 80.1712L97.6794 91.097L97.7861 87.2644L116.377 76.3386Z" fill="#FF8356"/>
</svg>
