<svg width="140" height="138" viewBox="0 0 140 138" fill="none" xmlns="http://www.w3.org/2000/svg">
<path d="M0.363671 82.9288V82.7744L0.353705 81.8179L0 45.5627V45.5253L39.8321 23.3711L39.862 23.3911V23.3936L39.9318 23.3562L40.283 59.7683L40.293 60.7223L0.363671 82.9288Z" fill="#EBEAEA"/>
<path opacity="0.4" d="M17.4206 73.1988V73.0444L17.4106 72.0879L16.9724 47.3473L39.8055 34.6496L39.8354 34.6695V34.672L39.9052 34.407L40.3408 59.4947L40.3508 60.4488L17.4206 73.1988Z" fill="#21729E"/>
<path d="M119.701 85.4228L28.7466 137.91L28.5899 138L26.7184 136.884L25.0753 135.915L24.2917 55.0386L24.2515 50.6628L115.224 0L118.676 2.38517L118.739 2.43001V2.4345L118.9 2.34931L119.701 85.4228Z" fill="#FAFAFA"/>
<path d="M119.702 87.4163L58.1337 121.571L28.5275 137.999V137.65L28.5051 135.465L27.7019 52.8858V52.7963L118.652 2.33463L118.715 2.37493V2.3794L118.876 2.29883L119.352 51.0864L119.679 85.2408L119.702 87.4163Z" fill="white"/>
<path fill-rule="evenodd" clip-rule="evenodd" d="M49.4697 114.734L110.932 80.5559L110.91 78.3789L110.583 44.2006L110.331 18.2634L36.5759 59.2836V59.3732L37.1794 121.57L49.4697 114.734Z" fill="#F2F8FA"/>
<path d="M76.2812 71.3002V71.184L76.2735 70.4639L76.001 43.1687V43.1405L107.051 25.8752L106.719 26.4765V26.4784L106.773 26.4502L107.043 53.8636L107.051 54.5818L76.2812 71.3002Z" fill="#309FDA"/>
<path opacity="0.9" d="M40.3511 60.7509L40.3603 63.7038L40.3756 114.799L46.1011 111.55L46.0858 60.4529L46.0781 57.5L40.3511 60.7509Z" fill="#08AAD1"/>
<path opacity="0.9" d="M40.3511 72.2506L40.3603 75.2035L40.3756 114.799L46.1011 111.55L46.0858 71.9526L46.0781 68.9998L40.3511 72.2506Z" fill="#61FDFF"/>
<path opacity="0.9" d="M48.4162 67.7716L48.4254 70.7245L48.425 110.199L54.1505 106.95L54.1509 67.4737L54.1432 64.5208L48.4162 67.7716Z" fill="#08AAD1"/>
<path opacity="0.9" d="M48.4009 82.601L48.4101 85.5539L48.4254 110.199L54.1509 106.95L54.1356 82.303L54.1279 79.3501L48.4009 82.601Z" fill="#61FDFF"/>
<path opacity="0.9" d="M56.4738 71.3012L56.483 74.2541L56.475 105.599L62.2005 102.35L62.2085 71.0032L62.2008 68.0503L56.4738 71.3012Z" fill="#08AAD1"/>
<path opacity="0.9" d="M56.4512 84.9022L56.4604 87.8551L56.4757 105.601L62.2012 102.351L62.1859 84.6043L62.1782 81.6514L56.4512 84.9022Z" fill="#61FDFF"/>
<path opacity="0.9" d="M64.5165 78.9858L64.5257 81.9387L64.5244 101L70.2499 97.7507L70.2512 78.6878L70.2436 75.7349L64.5165 78.9858Z" fill="#08AAD1"/>
<path opacity="0.3" d="M76.0007 78.9157L76.0301 88.9773L76.0791 93.1495L107.1 75.4716L107.051 71.2994L107.027 61.2429L76.0007 78.9157Z" fill="#08AAD1"/>
<path d="M98.4268 31.05L95.5518 40.825" stroke="#FAFAFA" stroke-width="0.494056" stroke-linecap="round" stroke-linejoin="round"/>
<path d="M99.9191 113.623V113.468L99.9091 112.512L99.5554 76.2565V76.2191L139.388 54.065L139.417 54.0849V54.0874L139.487 54.05L139.838 90.4622L139.848 91.4162L99.9191 113.623Z" fill="#F2F8FA"/>
<path d="M104.751 27.5994L101.301 35.0744" stroke="#FAFAFA" stroke-width="0.494056" stroke-linecap="round" stroke-linejoin="round"/>
<path d="M101.301 35.074L96.7012 37.374" stroke="#FAFAFA" stroke-width="0.494056" stroke-linecap="round" stroke-linejoin="round"/>
<path d="M92.6762 39.675L76.5762 62.675" stroke="white" stroke-width="0.494056" stroke-linecap="round" stroke-linejoin="round"/>
<path d="M102.451 44.2749L100.151 58.0749" stroke="white" stroke-width="0.494056" stroke-linecap="round" stroke-linejoin="round"/>
<path d="M82.8992 54.0496L85.2013 58.4369L82.8992 67.2746" stroke="white" stroke-width="0.494056" stroke-linecap="round" stroke-linejoin="round"/>
<path d="M78.8762 59.7988L84.0512 62.0988" stroke="white" stroke-width="0.494056" stroke-linecap="round" stroke-linejoin="round"/>
<path d="M76.001 43.7L92.676 39.675L105.231 45.4469L107.051 54.0501" stroke="#068DAD" stroke-width="0.494056" stroke-linecap="round" stroke-linejoin="round"/>
<path d="M76.3301 87.2515L93.6802 75.8895L100.052 74.2774L107.192 65.0649" stroke="white" stroke-width="0.494056" stroke-linecap="round" stroke-linejoin="round"/>
<path d="M93.2513 39.1645C93.2417 39.4721 93.1848 39.7717 93.0855 40.0389C92.9861 40.306 92.847 40.533 92.6796 40.7012C92.3473 40.9881 92.1046 40.7576 92.1013 40.189C92.1112 39.8815 92.1681 39.582 92.2675 39.3149C92.3669 39.0478 92.5058 38.8207 92.673 38.6522C92.9921 38.3602 93.2513 38.5856 93.2513 39.1645Z" fill="#067F9C"/>
<path opacity="0.9" d="M119.702 71.3373L119.707 73.0289L119.707 76.1583L122.986 74.2969L122.987 71.1666L122.983 69.4751L119.702 71.3373Z" fill="#ACE1EE"/>
<path opacity="0.9" d="M119.702 80.172L119.707 81.8636L119.706 84.993L122.986 83.1316L122.987 80.0013L122.982 78.3098L119.702 80.172Z" fill="#ACE1EE"/>
</svg>
