<svg width="97" height="39" viewBox="0 0 97 39" fill="none" xmlns="http://www.w3.org/2000/svg">
<g filter="url(#filter0_d)">
<path d="M29.1996 25.1752H29.559L29.6735 24.8346L34.359 10.9035H37.4L30.043 31.3805C29.347 33.316 28.4849 34.5974 27.471 35.3972C26.4652 36.1906 25.264 36.5465 23.8133 36.5465H23.8097H23.8062H23.8026H23.799H23.7955H23.7919H23.7883H23.7848H23.7812H23.7776H23.774H23.7704H23.7668H23.7633H23.7597H23.7561H23.7525H23.7489H23.7453H23.7417H23.7381H23.7345H23.7309H23.7273H23.7237H23.7201H23.7165H23.7128H23.7092H23.7056H23.702H23.6984H23.6948H23.6912H23.6875H23.6839H23.6803H23.6767H23.6731H23.6694H23.6658H23.6622H23.6586H23.6549H23.6513H23.6477H23.644H23.6404H23.6368H23.6331H23.6295H23.6259H23.6222H23.6186H23.615H23.6113H23.6077H23.6041H23.6004H23.5968H23.5932H23.5895H23.5859H23.5823H23.5786H23.575H23.5714H23.5677H23.5641H23.5605H23.5568H23.5532H23.5496H23.5459H23.5423H23.5387H23.535H23.5314H23.5278H23.5241H23.5205H23.5169H23.5132H23.5096H23.506H23.5024H23.4987H23.4951H23.4915H23.4879H23.4842H23.4806H23.477H23.4734H23.4697H23.4661H23.4625H23.4589H23.4553H23.4517H23.4481H23.4444H23.4408H23.4372H23.4336H23.43H23.4264H23.4228H23.4192H23.4156H23.412H23.4084H23.4048H23.4012H23.3976H23.3941H23.3905H23.3869H23.3833H23.3797H23.3761H23.3726H23.369H23.3654H23.3619H23.3583H23.3547H23.3512H23.3476H23.344H23.3405H23.3369H23.3334H23.3298H23.3263H23.3227H23.3192H23.3157H23.3121H23.3086H23.3051H23.3015H23.298H23.2945H23.291H23.2874H23.2839H23.2804H23.2769H23.2734H23.2699H23.2664H23.2629H23.2594H23.2559H23.2525H23.249H23.2455H23.242H23.2385H23.2351H23.2316H23.2282H23.2247H23.2212H23.2178H23.2143H23.2109H23.2075H23.204H23.2006H23.1972H23.1937H23.1903H23.1869H23.1835H23.1801H23.1767H23.1733H23.1699H23.1665H23.1631H23.1597H23.1564H23.153H23.1496H23.1462H23.1429H23.1395H23.1362H23.1328H23.1295H23.1261H23.1228H23.1195H23.1162H23.1128H23.1095H23.1062H23.1029H23.0996H23.0963H23.093H23.0897H23.0865H23.0832H23.0799H23.0767H23.0734H23.0701H23.0669H23.0636H23.0604H23.0572H23.054H23.0507H23.0475H23.0443H23.0411H23.0379H23.0347H23.0315H23.0283H23.0252H23.022H23.0188H23.0157H23.0125H23.0094H23.0062H23.0031H23H22.9968H22.9959V34.2646H23.4036C24.5561 34.2646 25.3967 33.9157 26.0478 33.2507C26.6699 32.6154 27.0841 31.7237 27.4782 30.7271C27.4782 30.7269 27.4783 30.7268 27.4783 30.7267L28.4915 28.1845L28.7645 27.4994H28.027H27.7727C26.9965 27.4994 26.356 27.091 25.7445 26.2575C25.1237 25.4114 24.5875 24.1978 24.0257 22.7366L24.0247 22.734L22.0679 17.7282L22.0677 17.7276C21.4815 16.2338 20.9934 15.102 20.4579 14.3461C20.1853 13.9611 19.884 13.649 19.5275 13.4346C19.1646 13.2162 18.77 13.1145 18.3387 13.1145C17.5232 13.1145 16.8937 13.4344 16.2846 14.004C15.7082 14.5429 15.1129 15.3418 14.3616 16.35L14.3363 16.384L14.3351 16.3856L12.621 18.6468L12.3922 18.9486L12.6207 19.2506L18.8661 27.5029H15.5197L11.152 21.5259L10.7433 20.9665L10.3412 21.5307L7.52616 25.4802L7.5257 25.4808C6.99813 26.2235 6.44507 26.7193 5.82534 27.0338C5.20495 27.3487 4.48344 27.4994 3.59247 27.4994H2.45361V25.2741H2.72359C3.38008 25.2741 3.96498 25.1153 4.56212 24.7003C5.13783 24.3003 5.70828 23.6734 6.37438 22.7761C6.37443 22.7761 6.37447 22.776 6.37451 22.776L8.94517 19.329L9.17063 19.0267L8.94191 18.7269L2.97444 10.9035H6.2904L10.4142 16.4493L10.8156 16.9892L11.2168 16.4492L12.5448 14.6617L12.546 14.66C14.3702 12.1837 15.7475 10.6208 18.4163 10.6208C20.0667 10.6208 21.1908 11.0537 22.0889 11.9276C23.0136 12.8274 23.7436 14.2364 24.4946 16.293C24.4947 16.2934 24.4949 16.2939 24.495 16.2943L26.1015 20.7402L26.1025 20.7428C26.5826 22.0491 26.9764 23.1173 27.379 23.8536C27.7691 24.5669 28.2777 25.1752 29.0689 25.1752H29.1996ZM51.6444 17.6383L51.513 18.2442H52.133H61.6977H62.2901L62.1907 17.6603C61.9536 16.2677 61.3722 15.0819 60.4766 14.241C59.5764 13.3957 58.3884 12.9274 57.0002 12.9274C55.5633 12.9274 54.3617 13.4104 53.4463 14.2602C52.5372 15.1042 51.9382 16.2832 51.6444 17.6383ZM57.3392 25.4402C59.5087 25.4402 61.0875 24.6316 62.4422 23.485L64.206 25.2142C62.2581 26.7624 60.1647 27.7644 57.3392 27.7644C54.5562 27.7644 52.3933 26.8627 50.9264 25.3692C49.4577 23.8739 48.6418 21.7397 48.6418 19.1926C48.6418 14.243 52.1026 10.6208 57.0002 10.6208C59.5563 10.6208 61.5868 11.6074 62.9838 13.1903C64.3866 14.7798 65.1748 16.9996 65.1748 19.4928C65.1748 19.7791 65.1635 20.0668 65.151 20.2964H52.1472H51.5384L51.6567 20.8935C51.924 22.2432 52.4802 23.3946 53.4338 24.2056C54.3899 25.0187 55.6872 25.4402 57.3392 25.4402ZM94.1992 25.2741H94.5471V27.4994H93.2281C91.7726 27.4994 90.7907 27.1225 90.1602 26.4173C89.5189 25.7002 89.1541 24.5485 89.1541 22.81V17.179C89.1541 16.2648 89.0135 15.2626 88.5263 14.4739C88.015 13.6462 87.1563 13.1111 85.8815 13.1111C84.6091 13.1111 83.7183 13.6414 83.1671 14.4566C82.6354 15.2428 82.4499 16.2469 82.4499 17.179V27.5029H79.5717V17.179C79.5717 16.2397 79.3675 15.2334 78.8103 14.4475C78.2351 13.6362 77.3184 13.1111 76.0272 13.1111C74.735 13.1111 73.8262 13.6371 73.2606 14.4514C72.7141 15.2383 72.5214 16.2441 72.5214 17.179V27.5029H69.668V17.0589C69.668 15.0274 70.3176 13.4328 71.4066 12.3472C72.4962 11.261 74.0716 10.6385 76.0095 10.6385C77.9553 10.6385 79.5489 11.333 80.6459 12.5044L81.0108 12.8942L81.3758 12.5044C82.4739 11.3318 84.0435 10.6385 85.991 10.6385C87.7757 10.6385 89.2573 11.21 90.2926 12.2663C91.3281 13.3226 91.9687 14.9165 91.9687 17.0589V17.0592L91.972 22.8665C91.972 22.8666 91.972 22.8667 91.972 22.8668C91.9721 23.595 92.1371 24.2183 92.5494 24.6588C92.9679 25.1059 93.5555 25.2741 94.1992 25.2741ZM44.7158 27.4994C43.1862 27.4994 42.162 27.1275 41.5071 26.4104C40.8426 25.6828 40.4652 24.5 40.4652 22.6687V1.45366H43.3045V22.6687C43.3045 23.4519 43.483 24.1059 43.9196 24.5612C44.3605 25.0209 44.9755 25.1858 45.6412 25.1858H45.9641V27.4994H44.7158Z" fill="white" stroke="black"/>
</g>
<defs>
<filter id="filter0_d" x="-2.04639" y="0.953657" width="101.093" height="44.0928" filterUnits="userSpaceOnUse" color-interpolation-filters="sRGB">
<feFlood flood-opacity="0" result="BackgroundImageFix"/>
<feColorMatrix in="SourceAlpha" type="matrix" values="0 0 0 0 0 0 0 0 0 0 0 0 0 0 0 0 0 0 127 0"/>
<feOffset dy="4"/>
<feGaussianBlur stdDeviation="2"/>
<feColorMatrix type="matrix" values="0 0 0 0 0 0 0 0 0 0 0 0 0 0 0 0 0 0 0.25 0"/>
<feBlend mode="normal" in2="BackgroundImageFix" result="effect1_dropShadow"/>
<feBlend mode="normal" in="SourceGraphic" in2="effect1_dropShadow" result="shape"/>
</filter>
</defs>
</svg>
