<svg width="95" height="38" viewBox="0 0 95 38" fill="none" xmlns="http://www.w3.org/2000/svg">
<path d="M28.1996 24.6752H28.0689C27.0905 24.6752 26.5431 23.2128 25.5718 20.5703L23.9647 16.1228C22.453 11.9825 20.9201 10.1208 17.4163 10.1208C14.4742 10.1208 12.9625 11.8942 11.1435 14.3635L9.81544 16.151L5.54169 10.4035H0.964207L7.54436 19.0301L4.97305 22.4779C3.65914 24.2478 2.84677 24.7741 1.72359 24.7741H0.953613V27.9994H2.59247C4.48917 27.9994 5.80661 27.3565 6.93332 25.7704L9.74834 21.8209L14.2658 28.0029H18.8716L12.0194 18.9488L13.736 16.6844C15.2865 14.6037 16.0247 13.6145 17.3387 13.6145C18.7303 13.6145 19.4225 14.904 20.6022 17.9103L22.559 22.916C23.6822 25.8375 24.7842 27.9994 26.7727 27.9994H27.027L26.0133 30.5429C25.2257 32.5353 24.4769 33.7646 22.4036 33.7646H21.4959V37.0465C21.4959 37.0465 22.2058 37.0465 22.8133 37.0465C25.8897 37.0465 28.0831 35.5274 29.5135 31.5497L37.1109 10.4035H32.9996L28.1996 24.6752ZM38.9652 22.6687C38.9652 26.438 40.5087 27.9994 43.7158 27.9994H45.4641V24.6858H44.6412C43.4615 24.6858 42.8045 24.1029 42.8045 22.6687V0.953657H38.9652V22.6687ZM51.133 17.7442H60.6977C60.2527 15.1301 58.5397 13.4274 56.0002 13.4274C53.3653 13.4274 51.6876 15.1866 51.133 17.7442ZM63.9543 25.2475C61.8245 27.0421 59.5251 28.2644 56.3392 28.2644C50.5502 28.2644 47.1418 24.5021 47.1418 19.1926C47.1418 13.982 50.8116 10.1208 56.0002 10.1208C61.39 10.1208 64.6748 14.2999 64.6748 19.4928C64.6748 20.1464 64.6183 20.7964 64.6183 20.7964H51.1472C51.6522 23.3469 53.2063 24.9402 56.3392 24.9402C58.5397 24.9402 60.0867 24.057 61.4607 22.8029L63.9543 25.2475ZM94.0471 24.7741V27.9994H92.2281C89.1517 27.9994 87.6541 26.3991 87.6541 22.81V17.179C87.6541 15.4233 87.1031 13.6111 84.8815 13.6111C82.6563 13.6111 81.9499 15.4233 81.9499 17.179V28.0029H78.0717V17.179C78.0717 15.4233 77.3018 13.6111 75.0272 13.6111C72.7525 13.6111 72.0214 15.4233 72.0214 17.179V28.0029H68.168V17.0589C68.168 12.7774 70.9159 10.1385 75.0095 10.1385C77.0793 10.1385 78.8099 10.8803 80.0108 12.1627C81.2117 10.8803 82.9177 10.1385 84.991 10.1385C88.7773 10.1385 91.4687 12.5725 91.4687 17.0589L91.472 22.8665C91.472 24.1912 92.076 24.7741 93.1992 24.7741H94.0471Z" fill="white"/>
</svg>
